<svg width="100%" height="100%" viewBox="0 0 28 28" fill="none" xmlns="http://www.w3.org/2000/svg">
<path d="M26.7987 7.04954L14.4237 0.174541C14.2201 0.0601078 13.9905 0 13.7569 0C13.5233 0 13.2936 0.0601078 13.09 0.174541L0.70125 7.04954C0.26125 7.29704 0 7.75079 0 8.24579V10.9958C0 11.752 0.61875 12.3708 1.375 12.3708H4.125V21.9958H1.375C0.61875 21.9958 0 22.6145 0 23.3708V26.1208C0 26.877 0.61875 27.4958 1.375 27.4958H26.125C26.8813 27.4958 27.5 26.877 27.5 26.1208V23.3708C27.5 22.6145 26.8813 21.9958 26.125 21.9958H23.375V12.3708H26.125C26.8813 12.3708 27.5 11.752 27.5 10.9958V8.24579C27.4996 8.00215 27.4344 7.76299 27.3112 7.5528C27.188 7.3426 27.0111 7.16893 26.7987 7.04954ZM9.625 21.9958H6.875V12.3708H9.625V21.9958ZM15.125 21.9958H12.375V12.3708H15.125V21.9958ZM13.75 9.62079C12.6088 9.62079 11.6875 8.69954 11.6875 7.55829C11.6875 6.41704 12.6088 5.49579 13.75 5.49579C14.8912 5.49579 15.8125 6.41704 15.8125 7.55829C15.8125 8.69954 14.8912 9.62079 13.75 9.62079ZM20.625 21.9958H17.875V12.3708H20.625V21.9958Z" fill="#758396"/>
</svg>
