<svg width="100%" height="100%" viewBox="0 0 132 132" fill="none" xmlns="http://www.w3.org/2000/svg">
<path d="M73.777 66L89.3365 50.446C90.3685 49.414 90.9483 48.0142 90.9483 46.5547C90.9483 45.0952 90.3685 43.6955 89.3365 42.6635C88.3045 41.6315 86.9047 41.0517 85.4452 41.0517C83.9857 41.0517 82.586 41.6315 81.554 42.6635L66 58.223L50.446 42.6635C49.414 41.6315 48.0142 41.0517 46.5547 41.0517C45.0952 41.0517 43.6955 41.6315 42.6635 42.6635C41.6315 43.6955 41.0517 45.0952 41.0517 46.5547C41.0517 48.0142 41.6315 49.414 42.6635 50.446L58.223 66L42.6635 81.554C41.6315 82.586 41.0517 83.9857 41.0517 85.4452C41.0517 86.9047 41.6315 88.3045 42.6635 89.3365C43.6955 90.3685 45.0952 90.9483 46.5547 90.9483C48.0142 90.9483 49.414 90.3685 50.446 89.3365L66 73.777L81.554 89.3365C82.586 90.3685 83.9857 90.9483 85.4452 90.9483C86.9047 90.9483 88.3045 90.3685 89.3365 89.3365C90.3685 88.3045 90.9483 86.9047 90.9483 85.4452C90.9483 83.9857 90.3685 82.586 89.3365 81.554L73.777 66ZM66 121C35.6235 121 11 96.3765 11 66C11 35.6235 35.6235 11 66 11C96.3765 11 121 35.6235 121 66C121 96.3765 96.3765 121 66 121Z" fill="#F45454"/>
</svg>
