<svg width="100%" height="100%" viewBox="0 0 28 28" fill="none" xmlns="http://www.w3.org/2000/svg">
<path fill-rule="evenodd" clip-rule="evenodd" d="M3 0C2.20435 0 1.44129 0.318918 0.87868 0.886596C0.31607 1.45427 0 2.22421 0 3.02703L0 15.1351C0 15.938 0.31607 16.7079 0.87868 17.2756C1.44129 17.8432 2.20435 18.1622 3 18.1622H25C25.7956 18.1622 26.5587 17.8432 27.1213 17.2756C27.6839 16.7079 28 15.938 28 15.1351V3.02703C28 2.22421 27.6839 1.45427 27.1213 0.886596C26.5587 0.318918 25.7956 0 25 0L3 0ZM15.25 2.9342C15.25 2.59969 15.1183 2.27888 14.8839 2.04235C14.6495 1.80582 14.3315 1.67294 14 1.67294C13.6685 1.67294 13.3505 1.80582 13.1161 2.04235C12.8817 2.27888 12.75 2.59969 12.75 2.9342V3.74141C12.0302 3.82651 11.3637 4.16627 10.8687 4.70034C10.3737 5.23441 10.0823 5.92822 10.0464 6.65853C10.0104 7.38885 10.2321 8.10839 10.6722 8.68935C11.1123 9.27031 11.7421 9.67509 12.45 9.83178L14.844 10.3585C15.0367 10.3954 15.2086 10.5042 15.3254 10.6633C15.4421 10.8223 15.4952 11.02 15.474 11.2167C15.4528 11.4135 15.3589 11.595 15.211 11.7251C15.0631 11.8551 14.8721 11.9241 14.676 11.9184H13.324C13.1623 11.919 13.0043 11.8688 12.8721 11.7748C12.7399 11.6808 12.6399 11.5476 12.586 11.3937C12.4678 11.0891 12.2369 10.8426 11.9421 10.7065C11.6472 10.5704 11.3115 10.5552 11.0057 10.6641C10.7 10.7731 10.4482 10.9976 10.3034 11.2904C10.1587 11.5832 10.1323 11.9212 10.23 12.2332C10.618 13.3431 11.576 14.1806 12.75 14.3905V15.228C12.75 15.5625 12.8817 15.8833 13.1161 16.1198C13.3505 16.3563 13.6685 16.4892 14 16.4892C14.3315 16.4892 14.6495 16.3563 14.8839 16.1198C15.1183 15.8833 15.25 15.5625 15.25 15.228V14.3885C15.9983 14.2547 16.6773 13.863 17.1713 13.2804C17.6653 12.6977 17.9436 11.9601 17.9587 11.1935C17.9738 10.4269 17.7248 9.67875 17.2542 9.07674C16.7835 8.47472 16.1204 8.05616 15.378 7.89247L12.984 7.36577C12.8476 7.33688 12.7267 7.25786 12.6447 7.14406C12.5628 7.03026 12.5257 6.8898 12.5407 6.74995C12.5556 6.61011 12.6216 6.48086 12.7257 6.38732C12.8298 6.29377 12.9646 6.2426 13.104 6.24375H14.676C14.8377 6.2432 14.9957 6.29341 15.1279 6.38741C15.2601 6.48141 15.3601 6.61456 15.414 6.76843C15.4645 6.92977 15.5467 7.07921 15.6556 7.20785C15.7645 7.33649 15.8979 7.44171 16.048 7.51723C16.198 7.59276 16.3616 7.63705 16.529 7.64747C16.6964 7.65789 16.8641 7.63422 17.0222 7.57788C17.1803 7.52154 17.3256 7.43368 17.4493 7.31952C17.5731 7.20537 17.6729 7.06725 17.7426 6.9134C17.8124 6.75955 17.8508 6.5931 17.8555 6.42398C17.8602 6.25485 17.8311 6.08649 17.77 5.92894C17.5768 5.37648 17.2417 4.88568 16.7989 4.50667C16.3562 4.12766 15.8217 3.87403 15.25 3.77168V2.9342ZM5.5 7.56757C5.89782 7.56757 6.27936 7.72703 6.56066 8.01087C6.84196 8.2947 7 8.67967 7 9.08108C7 9.48249 6.84196 9.86746 6.56066 10.1513C6.27936 10.4351 5.89782 10.5946 5.5 10.5946C5.10218 10.5946 4.72064 10.4351 4.43934 10.1513C4.15803 9.86746 4 9.48249 4 9.08108C4 8.67967 4.15803 8.2947 4.43934 8.01087C4.72064 7.72703 5.10218 7.56757 5.5 7.56757ZM22.5 7.56757C22.8978 7.56757 23.2794 7.72703 23.5607 8.01087C23.842 8.2947 24 8.67967 24 9.08108C24 9.48249 23.842 9.86746 23.5607 10.1513C23.2794 10.4351 22.8978 10.5946 22.5 10.5946C22.1022 10.5946 21.7206 10.4351 21.4393 10.1513C21.158 9.86746 21 9.48249 21 9.08108C21 8.67967 21.158 8.2947 21.4393 8.01087C21.7206 7.72703 22.1022 7.56757 22.5 7.56757ZM9 19.9279C9.69 19.9279 10.25 20.493 10.25 21.1892V25.2252C10.25 25.5597 10.1183 25.8805 9.88388 26.1171C9.64946 26.3536 9.33152 26.4865 9 26.4865C8.66848 26.4865 8.35054 26.3536 8.11612 26.1171C7.8817 25.8805 7.75 25.5597 7.75 25.2252V21.1892C7.75 20.493 8.31 19.9279 9 19.9279ZM20.25 21.1892C20.25 21.0236 20.2177 20.8595 20.1549 20.7065C20.092 20.5535 20 20.4145 19.8839 20.2973C19.7678 20.1802 19.63 20.0873 19.4784 20.0239C19.3267 19.9606 19.1642 19.9279 19 19.9279C18.8358 19.9279 18.6733 19.9606 18.5216 20.0239C18.37 20.0873 18.2322 20.1802 18.1161 20.2973C18 20.4145 17.908 20.5535 17.8451 20.7065C17.7823 20.8595 17.75 21.0236 17.75 21.1892V25.2252C17.75 25.3909 17.7823 25.5549 17.8451 25.7079C17.908 25.8609 18 26 18.1161 26.1171C18.2322 26.2342 18.37 26.3271 18.5216 26.3905C18.6733 26.4539 18.8358 26.4865 19 26.4865C19.1642 26.4865 19.3267 26.4539 19.4784 26.3905C19.63 26.3271 19.7678 26.2342 19.8839 26.1171C20 26 20.092 25.8609 20.1549 25.7079C20.2177 25.5549 20.25 25.3909 20.25 25.2252V21.1892ZM15.25 22.7027C15.25 22.3682 15.1183 22.0474 14.8839 21.8109C14.6495 21.5743 14.3315 21.4414 14 21.4414C13.6685 21.4414 13.3505 21.5743 13.1161 21.8109C12.8817 22.0474 12.75 22.3682 12.75 22.7027V26.7387C12.75 27.0732 12.8817 27.3941 13.1161 27.6306C13.3505 27.8671 13.6685 28 14 28C14.3315 28 14.6495 27.8671 14.8839 27.6306C15.1183 27.3941 15.25 27.0732 15.25 26.7387V22.7027Z" fill="#758396"/>
</svg>
