<svg width="100%" height="100%" viewBox="0 0 25 30" fill="none" xmlns="http://www.w3.org/2000/svg">
<g clip-path="url(#clip0_5119_62219)">
<path d="M21.2073 2.33513C19.8466 0.757445 17.3868 0.0810547 14.24 0.0810547H5.10723C4.79587 0.0810058 4.49471 0.193973 4.25793 0.399636C4.02114 0.605299 3.86427 0.890159 3.81553 1.20298L0.0127978 25.7361C-0.0627881 26.2199 0.305474 26.658 0.787505 26.658H6.42579L7.8418 17.5218L7.79786 17.8079C7.89874 17.1621 8.4417 16.6858 9.08467 16.6858H11.764C17.0274 16.6858 21.1488 14.5111 22.3527 8.22009C22.3885 8.03403 22.4194 7.85294 22.4462 7.67602C22.2942 7.59417 22.2942 7.59417 22.4462 7.67602C22.8047 5.35082 22.4438 3.76807 21.2073 2.33513Z" fill="#344AA6"/>
<path d="M9.99922 6.83841C10.1533 6.76363 10.3219 6.72493 10.4927 6.72516H17.6526C18.5005 6.72516 19.2913 6.78129 20.014 6.8996C20.2162 6.93242 20.4174 6.97158 20.6172 7.01701C20.9004 7.0806 21.1804 7.15841 21.4561 7.25016C21.8113 7.37086 22.1422 7.51142 22.4463 7.67602C22.8047 5.34993 22.4438 3.76807 21.2073 2.33513C19.8458 0.757445 17.3868 0.0810547 14.24 0.0810547H5.10645C4.46338 0.0810547 3.91631 0.55728 3.81553 1.20298L0.0127984 25.7352C-0.0627876 26.2198 0.305474 26.6573 0.786724 26.6573H6.42579L9.36358 7.70662C9.39249 7.52036 9.46544 7.34403 9.57617 7.19279C9.68689 7.04155 9.83207 6.91994 9.99922 6.83841Z" fill="#344AA6"/>
<path d="M22.3533 8.22034C21.1494 14.5104 17.0281 16.686 11.7645 16.686H9.08445C8.44148 16.686 7.89841 17.1623 7.79851 17.8081L6.03689 29.1679C5.97107 29.5913 6.29294 29.9749 6.71403 29.9749H11.467C11.7392 29.9748 12.0025 29.876 12.2095 29.696C12.4165 29.5161 12.5536 29.267 12.5962 28.9935L12.6425 28.7471L13.5383 22.972L13.596 22.6528C13.6385 22.3793 13.7756 22.1302 13.9826 21.9503C14.1895 21.7704 14.4528 21.6715 14.7251 21.6714H15.4364C20.0406 21.6714 23.6458 19.7687 24.6993 14.2657C25.139 11.9661 24.9115 10.0461 23.7482 8.69746C23.3954 8.28898 22.9572 7.95163 22.4468 7.67627C22.4191 7.85408 22.3891 8.03428 22.3533 8.22034Z" fill="#2790C3"/>
<path d="M21.1864 7.16507C20.9987 7.10931 20.8092 7.05995 20.6183 7.01705C20.4183 6.97234 20.2172 6.93345 20.015 6.90043C19.2916 6.78132 18.5014 6.7251 17.6527 6.7251H10.4937C10.3228 6.72481 10.1541 6.76383 10.0002 6.83924C9.83283 6.92048 9.68746 7.04201 9.57668 7.1933C9.4659 7.34458 9.39305 7.52107 9.36445 7.70745L7.84277 17.5218L7.79883 17.8079C7.89893 17.1621 8.44189 16.6858 9.08496 16.6858H11.765C17.0285 16.6858 21.1498 14.5111 22.3537 8.22013C22.3896 8.03407 22.4196 7.85378 22.4473 7.67606C22.1424 7.51248 21.8124 7.37079 21.457 7.25099C21.3674 7.22075 21.2772 7.1921 21.1865 7.16507" fill="#293470"/>
</g>
<defs>
<clipPath id="clip0_5119_62219">
<rect width="25" height="30" fill="white"/>
</clipPath>
</defs>
</svg>
