<svg width="100%" height="100%" viewBox="0 0 125 125" fill="none" xmlns="http://www.w3.org/2000/svg">
<path d="M63.25 8C32.8625 8 8 32.8625 8 63.25C8 93.6375 32.8625 118.5 63.25 118.5C93.6375 118.5 118.5 93.6375 118.5 63.25C118.5 32.8625 93.6375 8 63.25 8ZM63.25 107.45C38.94 107.45 19.05 87.56 19.05 63.25C19.05 38.94 38.94 19.05 63.25 19.05C87.56 19.05 107.45 38.94 107.45 63.25C107.45 87.56 87.56 107.45 63.25 107.45Z" fill="#F79400"/>
<path d="M57.725 35.625V68.775L87.0075 85.9025L91.4275 79.2725L66.565 64.355V35.625H57.725Z" fill="#F79400"/>
</svg>
