<svg width="100%" height="100%" viewBox="0 0 20 13" fill="none" xmlns="http://www.w3.org/2000/svg">
<path d="M19.8272 6.01381L13.765 0.19324C13.6357 0.0698435 13.4552 -2.67815e-07 13.2639 -2.75643e-07L9.22243 -4.41021e-07C8.95708 -4.5188e-07 8.7159 0.135038 8.60678 0.344576C8.49905 0.555279 8.54351 0.800915 8.72134 0.970871L14.378 6.40265L8.72134 11.8333C8.54351 12.0044 8.49765 12.2501 8.60677 12.4596C8.7159 12.6703 8.95708 12.8053 9.22243 12.8053L13.2639 12.8053C13.4552 12.8053 13.6357 12.7343 13.765 12.6133L19.8272 6.79265C20.0576 6.57146 20.0576 6.23385 19.8272 6.01381Z" fill="#FBDC81"/>
<path d="M11.2784 6.20827L5.21625 0.387698C5.08692 0.264302 4.90636 0.194458 4.71509 0.194458L0.673645 0.194458C0.408216 0.194458 0.167115 0.329496 0.0579901 0.539034C-0.0498133 0.749737 -0.00535587 0.995373 0.172478 1.16533L5.82919 6.59711L0.172477 12.0277C-0.0053564 12.1989 -0.0511356 12.4445 0.0579895 12.6541C0.167115 12.8647 0.408215 12.9998 0.673644 12.9998L4.71508 12.9998C4.90636 12.9998 5.08692 12.9287 5.21625 12.8077L11.2784 6.98711C11.5087 6.76592 11.5087 6.4283 11.2784 6.20827Z" fill="#FBDC81" fill-opacity="0.34"/>
</svg>
