<svg width="100%" height="100%" viewBox="0 0 20 20" fill="none" xmlns="http://www.w3.org/2000/svg">
<path d="M10.0209 6.25C6.19419 6.25 3.14844 9.33594 3.14844 13.125C3.14844 16.9531 6.19419 20 10.0209 20C13.8085 20 16.8933 16.9531 16.8933 13.125C16.8933 9.33594 13.8085 6.25 10.0209 6.25ZM13.6133 12.4219L12.1295 13.8672L12.4809 15.8985C12.559 16.25 12.1685 16.5235 11.8171 16.3672L10.0209 15.3906L8.18564 16.3672C7.8342 16.5235 7.44373 16.25 7.52183 15.8985L7.87325 13.8672L6.38943 12.4219C6.11609 12.1484 6.27229 11.7188 6.62371 11.6406L8.69326 11.3672L9.59136 9.49219C9.66946 9.33594 9.82565 9.25781 9.98185 9.25781C10.1771 9.25781 10.3333 9.33594 10.4114 9.49219L11.3095 11.3672L13.379 11.6406C13.7304 11.7188 13.8867 12.1484 13.6133 12.4219Z" fill="#C65918"/>
<path d="M6.03662 0.625L8.73094 5.11719C7.09092 5.39062 5.6071 6.13281 4.4747 7.22656L0.101318 1.01562C-0.172019 0.585938 0.140365 0 0.64799 0H4.98233C5.3728 0 5.84139 0.273438 6.03662 0.625Z" fill="#C65918"/>
<path d="M15.0181 0H19.3525C19.8601 0 20.1725 0.585938 19.8991 1.01562L15.5258 7.22656C14.3934 6.13281 12.9096 5.39062 11.2695 5.11719L13.9639 0.625C14.1981 0.234375 14.5886 0 15.0181 0Z" fill="#C65918"/>
</svg>
