<svg width="100%" height="100%" viewBox="0 0 23 23" fill="none" xmlns="http://www.w3.org/2000/svg">
<path d="M15.4614 12.3003H13.8781C13.4409 12.3003 13.0864 12.658 13.0864 13.0994C13.0864 13.5407 13.4409 13.8983 13.8781 13.8983H15.4614C15.8986 13.8983 16.253 13.5407 16.253 13.0994C16.253 12.658 15.8986 12.3003 15.4614 12.3003Z" fill="current"/>
<path d="M17.0429 14.6958H5.95989C4.64825 14.6958 3.58496 15.769 3.58496 17.093C3.58496 18.4169 4.64825 19.4902 5.95989 19.4902H17.0429C18.3545 19.4902 19.4178 18.4169 19.4178 17.093C19.4178 15.769 18.3545 14.6958 17.0429 14.6958Z" fill="current"/>
<path d="M9.91873 11.4997C9.91873 11.0584 9.5643 10.7007 9.12709 10.7007C8.68988 10.7007 8.33545 11.0584 8.33545 11.4997V14.696C8.33545 15.1373 8.68988 15.495 9.12709 15.495C9.5643 15.495 9.91873 15.1373 9.91873 14.696V11.4997Z" fill="current"/>
<path d="M9.12506 9.90227C10.8739 9.90227 12.2916 8.47126 12.2916 6.70602C12.2916 4.94078 10.8739 3.50977 9.12506 3.50977C7.37622 3.50977 5.9585 4.94078 5.9585 6.70602C5.9585 8.47126 7.37622 9.90227 9.12506 9.90227Z" fill="current"/>
</svg>
