<svg width="100%" height="100%" viewBox="0 0 23 23" fill="none" xmlns="http://www.w3.org/2000/svg">
<path d="M5.01723 13.5438C5.27953 10.3651 8.88353 7.25343 9.7229 6.0878C10.4521 5.04147 10.1741 3.79879 9.9406 3.25201C9.93483 3.23462 9.93116 3.21473 9.93116 3.19386C9.93116 3.08699 10.023 3 10.1358 3C10.1494 3 10.1625 3.00149 10.1751 3.00348H10.1741C13.82 3.7292 14.0036 6.35622 13.8935 7.53179C13.7833 8.70736 14.0036 9.50018 14.8063 9.32869C15.6089 9.1572 15.3387 7.22857 15.3387 7.22857C15.3387 7.22857 19.0241 11.3766 17.6732 15.4551C16.9939 17.5875 15.302 18.4872 13.8804 18.9097C13.8069 18.9445 13.7335 18.8749 13.7335 18.773C13.9171 18.1169 14.3918 17.5975 14.5361 16.8717C14.8299 15.6788 13.6626 14.5802 12.7971 13.9589C12.2557 13.5767 11.9084 12.9717 11.9084 12.2897C11.9084 12.2579 11.9089 12.2261 11.9105 12.1948V12.1993C11.9105 12.1297 11.8003 12.0949 11.7662 12.1297C11.1965 12.7799 10.6242 13.3659 10.0198 13.9211L10.014 13.9266C8.66582 15.3432 7.97073 16.9339 9.17469 18.696C9.21141 18.7656 9.13797 18.8675 9.06714 18.8352C6.0743 18.0722 4.83624 15.9273 5.01723 13.5438Z" fill="current"/>
</svg>
