<svg width="100%" height="100%" viewBox="0 0 9 11" fill="none" xmlns="http://www.w3.org/2000/svg">
<path d="M1.5 1.9541H0.5V0.954102H8.5V1.9541H7.5V2.9541C7.5 3.7616 7.092 4.4116 6.578 4.9426C6.2265 5.3056 5.799 5.6401 5.3655 5.9541C5.799 6.2681 6.2265 6.6026 6.578 6.9656C7.092 7.4966 7.5 8.1466 7.5 8.9541V9.9541H8.5V10.9541H0.5V9.9541H1.5V8.9541C1.5 8.1466 1.908 7.4966 2.422 6.9656C2.7735 6.6026 3.201 6.2681 3.6345 5.9541C3.201 5.6401 2.7735 5.3056 2.422 4.9426C1.908 4.4116 1.5 3.7616 1.5 2.9541V1.9541ZM2.5 1.9541V2.9541C2.5 3.2966 2.63 3.6216 2.8855 3.9541H6.1145C6.3695 3.6216 6.5 3.2966 6.5 2.9541V1.9541H2.5ZM4.5 6.5651C3.9775 6.9341 3.504 7.2856 3.1405 7.6611C3.05014 7.75397 2.96501 7.85179 2.8855 7.9541H6.1145C6.03499 7.85179 5.94986 7.75397 5.8595 7.6611C5.496 7.2856 5.0225 6.9341 4.5 6.5651Z" fill="#6B9DFF"/>
</svg>
