<svg width="100%" height="100%" viewBox="0 0 23 23" fill="none" xmlns="http://www.w3.org/2000/svg">
<path d="M13.338 3.51987L16.4358 5.50845C17.5607 6.23078 18.2446 7.49813 18.2446 8.8607V13.3949C18.2446 14.758 17.5613 16.0254 16.4358 16.7472L13.338 18.7358C12.0906 19.5363 10.5076 19.5363 9.26014 18.7358L6.16234 16.7472C5.03742 16.0249 4.35352 14.7575 4.35352 13.3949V8.8607C4.35352 7.49758 5.03689 6.23023 6.16234 5.50845L9.26014 3.51987C10.5076 2.71929 12.0906 2.71929 13.338 3.51987ZM13.8062 16.2312C13.5777 15.9767 13.0962 16.1004 12.7308 16.507C12.3654 16.9135 12.2541 17.4487 12.4826 17.7032C12.7111 17.9576 13.1926 17.834 13.558 17.4274C13.9234 17.0208 14.0347 16.4856 13.8062 16.2312ZM8.63057 12.19C7.98821 11.4715 7.11576 11.2805 6.68113 11.7631C6.2465 12.2458 6.41428 13.2193 7.0561 13.9383C7.69846 14.6568 8.57092 14.8478 9.00554 14.3651C9.44017 13.8825 9.27239 12.909 8.63057 12.19ZM15.6518 12.9172C15.4233 12.6628 14.9418 12.7864 14.5764 13.193C14.211 13.5996 14.0997 14.1348 14.3282 14.3892C14.5567 14.6437 15.0382 14.52 15.4035 14.1134C15.7689 13.7068 15.8803 13.1717 15.6518 12.9172ZM17.3551 9.91792C17.1266 9.66401 16.6451 9.78714 16.2797 10.1937C15.9143 10.6003 15.803 11.1355 16.0315 11.3899C16.26 11.6444 16.7415 11.5207 17.1069 11.1141C17.4723 10.7076 17.5836 10.1724 17.3551 9.91792ZM14.0336 5.67207C13.3321 5.67207 12.7633 6.07208 12.7633 6.56567C12.7633 7.05926 13.3321 7.45928 14.0336 7.45928C14.7351 7.45928 15.3039 7.05926 15.3039 6.56567C15.3039 6.07208 14.7351 5.67207 14.0336 5.67207ZM8.62471 5.67207C7.92323 5.67207 7.35438 6.07208 7.35438 6.56567C7.35438 7.05926 7.92323 7.45928 8.62471 7.45928C9.32619 7.45928 9.89504 7.05926 9.89504 6.56567C9.89504 6.07208 9.32619 5.67207 8.62471 5.67207Z" fill="current"/>
</svg>
