<svg width="100%" height="100%" viewBox="0 0 23 23" fill="none" xmlns="http://www.w3.org/2000/svg">
<path d="M9.38672 4H4.76953C4.34453 4 4 4.34453 4 4.76953V10.9258C4 11.3508 4.34453 11.6953 4.76953 11.6953H9.38672C9.81172 11.6953 10.1562 11.3508 10.1562 10.9258V4.76953C10.1562 4.34453 9.81172 4 9.38672 4Z" fill="current"/>
<path d="M9.38672 13.2344H4.76953C4.34453 13.2344 4 13.5789 4 14.0039V17.082C4 17.507 4.34453 17.8516 4.76953 17.8516H9.38672C9.81172 17.8516 10.1562 17.507 10.1562 17.082V14.0039C10.1562 13.5789 9.81172 13.2344 9.38672 13.2344Z" fill="current" fill-opacity="0.7"/>
<path d="M17.082 10.1562H12.4648C12.0398 10.1562 11.6953 10.5008 11.6953 10.9258V17.082C11.6953 17.507 12.0398 17.8516 12.4648 17.8516H17.082C17.507 17.8516 17.8516 17.507 17.8516 17.082V10.9258C17.8516 10.5008 17.507 10.1562 17.082 10.1562Z" fill="current" fill-opacity="0.5"/>
<path d="M17.082 4H12.4648C12.0398 4 11.6953 4.34453 11.6953 4.76953V7.84766C11.6953 8.27265 12.0398 8.61719 12.4648 8.61719H17.082C17.507 8.61719 17.8516 8.27265 17.8516 7.84766V4.76953C17.8516 4.34453 17.507 4 17.082 4Z" fill="current" fill-opacity="0.5"/>
</svg>
