<svg width="100%" height="100%" viewBox="0 0 23 23" fill="none" xmlns="http://www.w3.org/2000/svg">
<path d="M20.027 11.4372L16.2753 9.81499L14.7127 5.92049C14.6054 5.6543 14.1847 5.6543 14.0774 5.92049L12.5147 9.81499L8.76302 11.4372C8.63446 11.4928 8.55127 11.6227 8.55127 11.7669C8.55127 11.911 8.63446 12.0409 8.76302 12.0966L12.5147 13.7187L14.0774 17.6132C14.131 17.7467 14.2561 17.833 14.395 17.833C14.5339 17.833 14.659 17.7467 14.7127 17.6132L16.2753 13.7187L20.027 12.0966C20.1556 12.0409 20.2388 11.911 20.2388 11.7669C20.2388 11.6227 20.1556 11.4928 20.027 11.4372ZM11.0662 6.43219L8.65164 5.59649L7.84658 3.09009C7.75239 2.79891 7.28765 2.79891 7.19414 3.09009L6.3884 5.59649L3.97389 6.43219C3.83364 6.48144 3.73877 6.61775 3.73877 6.77118C3.73877 6.92463 3.83364 7.06093 3.97389 7.11018L6.38908 7.94589L7.19414 10.453C7.24089 10.5979 7.37221 10.6963 7.52002 10.6963C7.66783 10.6963 7.79915 10.5979 7.84658 10.4523L8.65164 7.94517L11.0668 7.10947C11.2064 7.06093 11.3013 6.92463 11.3013 6.77118C11.3013 6.61775 11.2064 6.48144 11.0662 6.43219ZM9.69114 15.7099L8.30721 15.231L7.84589 13.7944C7.75171 13.5032 7.28695 13.5032 7.19346 13.7944L6.73214 15.231L5.3482 15.7099C5.20865 15.7591 5.11377 15.8954 5.11377 16.0489C5.11377 16.2023 5.20865 16.3386 5.3489 16.3878L6.73283 16.8668L7.19414 18.3033C7.24089 18.4482 7.37221 18.5467 7.52002 18.5467C7.66783 18.5467 7.79915 18.4482 7.84658 18.3027L8.30789 16.866L9.69183 16.3872C9.83139 16.3386 9.92627 16.2023 9.92627 16.0489C9.92627 15.8954 9.83139 15.7591 9.69114 15.7099Z" fill="current"/>
<path d="M20.027 11.4372L16.2753 9.81499L14.7127 5.92049C14.6054 5.6543 14.1847 5.6543 14.0774 5.92049L12.5147 9.81499L8.76302 11.4372C8.63446 11.4928 8.55127 11.6227 8.55127 11.7669C8.55127 11.911 8.63446 12.0409 8.76302 12.0966L12.5147 13.7187L14.0774 17.6132C14.131 17.7467 14.2561 17.833 14.395 17.833C14.5339 17.833 14.659 17.7467 14.7127 17.6132L16.2753 13.7187L20.027 12.0966C20.1556 12.0409 20.2388 11.911 20.2388 11.7669C20.2388 11.6227 20.1556 11.4928 20.027 11.4372ZM11.0662 6.43219L8.65164 5.59649L7.84658 3.09009C7.75239 2.79891 7.28765 2.79891 7.19414 3.09009L6.3884 5.59649L3.97389 6.43219C3.83364 6.48144 3.73877 6.61775 3.73877 6.77118C3.73877 6.92463 3.83364 7.06093 3.97389 7.11018L6.38908 7.94589L7.19414 10.453C7.24089 10.5979 7.37221 10.6963 7.52002 10.6963C7.66783 10.6963 7.79915 10.5979 7.84658 10.4523L8.65164 7.94517L11.0668 7.10947C11.2064 7.06093 11.3013 6.92463 11.3013 6.77118C11.3013 6.61775 11.2064 6.48144 11.0662 6.43219ZM9.69114 15.7099L8.30721 15.231L7.84589 13.7944C7.75171 13.5032 7.28695 13.5032 7.19346 13.7944L6.73214 15.231L5.3482 15.7099C5.20865 15.7591 5.11377 15.8954 5.11377 16.0489C5.11377 16.2023 5.20865 16.3386 5.3489 16.3878L6.73283 16.8668L7.19414 18.3033C7.24089 18.4482 7.37221 18.5467 7.52002 18.5467C7.66783 18.5467 7.79915 18.4482 7.84658 18.3027L8.30789 16.866L9.69183 16.3872C9.83139 16.3386 9.92627 16.2023 9.92627 16.0489C9.92627 15.8954 9.83139 15.7591 9.69114 15.7099Z" fill="current" />
</svg>
