<svg width="23" height="23" viewBox="0 0 23 23" fill="none" xmlns="http://www.w3.org/2000/svg">
<path d="M18.3833 11.3201H17.2583V8.32007C17.2583 7.92224 17.1003 7.54071 16.819 7.25941C16.5377 6.9781 16.1561 6.82007 15.7583 6.82007H12.7583V5.69507C12.7583 5.19779 12.5608 4.72087 12.2091 4.36924C11.8575 4.01761 11.3806 3.82007 10.8833 3.82007C10.386 3.82007 9.90911 4.01761 9.55748 4.36924C9.20584 4.72087 9.0083 5.19779 9.0083 5.69507V6.82007H6.0083C5.61048 6.82007 5.22895 6.9781 4.94764 7.25941C4.66634 7.54071 4.5083 7.92224 4.5083 8.32007V11.1701H5.6333C6.7583 11.1701 7.6583 12.0701 7.6583 13.1951C7.6583 14.3201 6.7583 15.2201 5.6333 15.2201H4.5083V18.0701C4.5083 18.4679 4.66634 18.8494 4.94764 19.1307C5.22895 19.412 5.61048 19.5701 6.0083 19.5701H8.8583V18.4451C8.8583 17.3201 9.7583 16.4201 10.8833 16.4201C12.0083 16.4201 12.9083 17.3201 12.9083 18.4451V19.5701H15.7583C16.1561 19.5701 16.5377 19.412 16.819 19.1307C17.1003 18.8494 17.2583 18.4679 17.2583 18.0701V15.0701H18.3833C18.8806 15.0701 19.3575 14.8725 19.7091 14.5209C20.0608 14.1693 20.2583 13.6923 20.2583 13.1951C20.2583 12.6978 20.0608 12.2209 19.7091 11.8692C19.3575 11.5176 18.8806 11.3201 18.3833 11.3201Z" fill="current"/>
</svg>
