<svg width="100%" height="100%" viewBox="0 0 23 23" fill="none" xmlns="http://www.w3.org/2000/svg">
<path d="M11.5 2.5C6.53748 2.5 2.5 6.53748 2.5 11.5C2.5 16.4625 6.53748 20.5 11.5 20.5C16.4625 20.5 20.5 16.4625 20.5 11.5C20.5 6.53748 16.4625 2.5 11.5 2.5ZM11.875 4.01904C12.5096 4.05067 13.1252 4.15216 13.709 4.33252L13.1948 5.74756C12.7725 5.62291 12.3302 5.54738 11.875 5.51904V4.01904ZM8.58643 4.58887L9.10059 6.00391C8.68782 6.18486 8.30156 6.41425 7.94336 6.6792L6.97949 5.5293C7.47269 5.15494 8.00896 4.83331 8.58643 4.58887ZM16.5947 6.01123C17.05 6.43416 17.4536 6.91019 17.793 7.43359L16.4951 8.18213C16.2464 7.80873 15.9546 7.46797 15.6309 7.15967L16.5947 6.01123ZM11.5 7C13.9814 7 16 9.01855 16 11.5C16 13.9814 13.9814 16 11.5 16C9.01855 16 7 13.9814 7 11.5C7 9.01855 9.01855 7 11.5 7ZM11.5 7.75C11.0865 7.75 10.75 8.08655 10.75 8.5C10.75 8.77393 10.905 9.00336 11.125 9.13428V10.0527C10.6004 10.1891 10.1891 10.6004 10.0527 11.125H9.13428C9.00336 10.905 8.77393 10.75 8.5 10.75C8.08655 10.75 7.75 11.0865 7.75 11.5C7.75 11.9135 8.08655 12.25 8.5 12.25C8.77393 12.25 9.00336 12.095 9.13428 11.875H10.0527C10.1891 12.3996 10.6004 12.8109 11.125 12.9473V13.8657C10.905 13.9966 10.75 14.2261 10.75 14.5C10.75 14.9135 11.0865 15.25 11.5 15.25C11.9135 15.25 12.25 14.9135 12.25 14.5C12.25 14.2261 12.095 13.9966 11.875 13.8657V12.9473C12.3996 12.8109 12.8109 12.3996 12.9473 11.875H13.8657C13.9966 12.095 14.2261 12.25 14.5 12.25C14.9135 12.25 15.25 11.9135 15.25 11.5C15.25 11.0865 14.9135 10.75 14.5 10.75C14.2261 10.75 13.9966 10.905 13.8657 11.125H12.9473C12.8109 10.6004 12.3996 10.1891 11.875 10.0527V9.13428C12.095 9.00336 12.25 8.77393 12.25 8.5C12.25 8.08655 11.9135 7.75 11.5 7.75ZM4.83203 8.08252L6.13281 8.83398C5.93497 9.23068 5.78079 9.652 5.67432 10.0923L4.19336 9.8315C4.3338 9.21658 4.55032 8.63 4.83203 8.08252ZM18.9355 10.5698C18.9736 10.8754 19 11.1843 19 11.5C19 11.8157 18.9736 12.1246 18.9355 12.4302L17.4604 12.1709C17.4851 11.9505 17.5 11.7269 17.5 11.5C17.5 11.2731 17.4851 11.0495 17.4604 10.8291L18.9355 10.5698ZM5.67432 12.9077C5.78079 13.348 5.93497 13.7693 6.13281 14.166L4.83203 14.9175C4.55032 14.37 4.3338 13.7834 4.19336 13.1685L5.67432 12.9077ZM16.4951 14.8179L17.793 15.5664C17.4536 16.0898 17.05 16.5658 16.5947 16.9888L15.6309 15.8403C15.9546 15.532 16.2464 15.1913 16.4951 14.8179ZM7.94336 16.3208C8.30156 16.5858 8.68782 16.8151 9.10059 16.9961L8.58643 18.4111C8.00896 18.1667 7.47269 17.8451 6.97949 17.4707L7.94336 16.3208ZM13.1948 17.2524L13.709 18.6675C13.1252 18.8478 12.5096 18.9493 11.875 18.981V17.481C12.3302 17.4526 12.7725 17.3771 13.1948 17.2524Z" fill="current"/>
<path d="M11.5 2.5C6.53748 2.5 2.5 6.53748 2.5 11.5C2.5 16.4625 6.53748 20.5 11.5 20.5C16.4625 20.5 20.5 16.4625 20.5 11.5C20.5 6.53748 16.4625 2.5 11.5 2.5ZM11.875 4.01904C12.5096 4.05067 13.1252 4.15216 13.709 4.33252L13.1948 5.74756C12.7725 5.62291 12.3302 5.54738 11.875 5.51904V4.01904ZM8.58643 4.58887L9.10059 6.00391C8.68782 6.18486 8.30156 6.41425 7.94336 6.6792L6.97949 5.5293C7.47269 5.15494 8.00896 4.83331 8.58643 4.58887ZM16.5947 6.01123C17.05 6.43416 17.4536 6.91019 17.793 7.43359L16.4951 8.18213C16.2464 7.80873 15.9546 7.46797 15.6309 7.15967L16.5947 6.01123ZM11.5 7C13.9814 7 16 9.01855 16 11.5C16 13.9814 13.9814 16 11.5 16C9.01855 16 7 13.9814 7 11.5C7 9.01855 9.01855 7 11.5 7ZM11.5 7.75C11.0865 7.75 10.75 8.08655 10.75 8.5C10.75 8.77393 10.905 9.00336 11.125 9.13428V10.0527C10.6004 10.1891 10.1891 10.6004 10.0527 11.125H9.13428C9.00336 10.905 8.77393 10.75 8.5 10.75C8.08655 10.75 7.75 11.0865 7.75 11.5C7.75 11.9135 8.08655 12.25 8.5 12.25C8.77393 12.25 9.00336 12.095 9.13428 11.875H10.0527C10.1891 12.3996 10.6004 12.8109 11.125 12.9473V13.8657C10.905 13.9966 10.75 14.2261 10.75 14.5C10.75 14.9135 11.0865 15.25 11.5 15.25C11.9135 15.25 12.25 14.9135 12.25 14.5C12.25 14.2261 12.095 13.9966 11.875 13.8657V12.9473C12.3996 12.8109 12.8109 12.3996 12.9473 11.875H13.8657C13.9966 12.095 14.2261 12.25 14.5 12.25C14.9135 12.25 15.25 11.9135 15.25 11.5C15.25 11.0865 14.9135 10.75 14.5 10.75C14.2261 10.75 13.9966 10.905 13.8657 11.125H12.9473C12.8109 10.6004 12.3996 10.1891 11.875 10.0527V9.13428C12.095 9.00336 12.25 8.77393 12.25 8.5C12.25 8.08655 11.9135 7.75 11.5 7.75ZM4.83203 8.08252L6.13281 8.83398C5.93497 9.23068 5.78079 9.652 5.67432 10.0923L4.19336 9.8315C4.3338 9.21658 4.55032 8.63 4.83203 8.08252ZM18.9355 10.5698C18.9736 10.8754 19 11.1843 19 11.5C19 11.8157 18.9736 12.1246 18.9355 12.4302L17.4604 12.1709C17.4851 11.9505 17.5 11.7269 17.5 11.5C17.5 11.2731 17.4851 11.0495 17.4604 10.8291L18.9355 10.5698ZM5.67432 12.9077C5.78079 13.348 5.93497 13.7693 6.13281 14.166L4.83203 14.9175C4.55032 14.37 4.3338 13.7834 4.19336 13.1685L5.67432 12.9077ZM16.4951 14.8179L17.793 15.5664C17.4536 16.0898 17.05 16.5658 16.5947 16.9888L15.6309 15.8403C15.9546 15.532 16.2464 15.1913 16.4951 14.8179ZM7.94336 16.3208C8.30156 16.5858 8.68782 16.8151 9.10059 16.9961L8.58643 18.4111C8.00896 18.1667 7.47269 17.8451 6.97949 17.4707L7.94336 16.3208ZM13.1948 17.2524L13.709 18.6675C13.1252 18.8478 12.5096 18.9493 11.875 18.981V17.481C12.3302 17.4526 12.7725 17.3771 13.1948 17.2524Z" fill="current"/>
</svg>
