<svg width="100%" height="100%" viewBox="0 0 23 23" fill="none" xmlns="http://www.w3.org/2000/svg">
<path d="M14.4713 3.86448C13.4938 5.15823 12.9763 6.71073 12.9763 8.33032C12.9763 9.25032 13.1392 10.1511 13.4746 10.9945C13.2638 11.0424 13.0529 11.0903 12.8517 11.167C12.7079 11.2149 12.5642 11.2628 12.3821 11.3299C12.0179 10.3716 11.8263 9.35573 11.8263 8.33032C11.8263 7.62115 11.9221 6.88323 12.1042 6.1549L12.3246 5.2924L11.7209 5.95365C10.4367 7.34323 9.59336 9.05865 9.27714 10.937C9.22923 10.937 9.18131 10.937 9.14298 10.9178C8.66381 10.8411 8.41464 10.8891 8.13672 10.9178C8.61589 7.55406 10.6954 4.61198 13.7429 3.00198C14.2125 2.74323 14.4713 2.94448 14.5575 3.04032C14.73 3.25115 14.6917 3.57698 14.4617 3.88365L14.4713 3.86448Z" fill="current"/>
<path d="M18.4385 16.1888V16.275C18.4385 18.4025 16.7135 20.118 14.586 20.118C13.3785 20.118 12.3147 19.5717 11.6247 18.7092C11.6247 18.7092 11.596 18.6709 11.5864 18.6517C11.4714 18.508 11.366 18.3546 11.2797 18.1917C11.2318 18.1055 11.1839 18.0288 11.1455 17.9425C10.9251 17.4825 10.791 16.9938 10.7622 16.4859V16.4284C10.7622 16.3709 10.7622 16.323 10.7622 16.2655C10.7622 16.1025 10.7622 15.93 10.8005 15.7671C10.8197 15.6425 10.8485 15.518 10.8772 15.3934C10.9443 15.0675 11.0593 14.7513 11.2222 14.4734C11.2797 14.368 11.3276 14.2721 11.3947 14.1859C11.433 14.1188 11.481 14.0517 11.5289 13.9846C11.5672 13.9271 11.6151 13.8888 11.6439 13.8409C12.008 13.3905 12.468 13.0263 12.9951 12.7867C13.1293 12.7196 13.2826 12.6717 13.4264 12.6238C13.6564 12.5375 13.896 12.4896 14.1355 12.4705C14.2889 12.4417 14.4422 12.4321 14.6051 12.4321H14.6722C16.493 12.4609 17.9976 13.7546 18.3618 15.4796C18.4193 15.7096 18.448 15.9492 18.4576 16.1984L18.4385 16.1888Z" fill="current"/>
<path d="M9.909 18.9486C10.0528 19.2169 10.2157 19.4565 10.4073 19.6865C9.88025 19.9644 9.2765 20.1178 8.644 20.1178C6.5165 20.1178 4.7915 18.4024 4.7915 16.2749C4.7915 14.454 6.0661 12.9111 7.78151 12.5278C7.92526 12.4894 8.0786 12.4607 8.24151 12.4415C8.3661 12.4415 8.50984 12.4224 8.644 12.4224C8.73984 12.4224 8.83568 12.4224 8.93151 12.4415C9.08485 12.4415 9.23817 12.4703 9.3915 12.5086C9.75567 12.5757 10.0911 12.6907 10.4169 12.8536C10.2253 13.0932 10.0623 13.3328 9.909 13.6011C9.76525 13.8694 9.6215 14.1474 9.52567 14.4349C9.449 14.6265 9.4011 14.8278 9.35318 15.029C9.30526 15.1919 9.2765 15.3644 9.25734 15.5274C9.219 15.7765 9.19985 16.0161 9.19985 16.2749C9.19985 16.3707 9.19985 16.4761 9.19985 16.5719V16.6103C9.19985 16.7444 9.2286 16.8786 9.24776 17.0128C9.24776 17.1374 9.28609 17.2619 9.31484 17.3769C9.31484 17.4249 9.31484 17.4632 9.34359 17.4919C9.36275 17.5878 9.38192 17.674 9.42025 17.7699C9.449 17.8753 9.48734 17.9999 9.52567 18.1053C9.57359 18.249 9.63109 18.3928 9.69817 18.5365C9.76525 18.6803 9.83234 18.824 9.91859 18.9486H9.909Z" fill="current"/>
<path d="M10.8481 15.4024C10.9248 15.0862 11.0398 14.7699 11.1931 14.4824C11.0302 14.7699 10.9056 15.0766 10.8481 15.4024Z" fill="current"/>
<path d="M18.582 9.11631C18.5437 9.44215 18.4478 9.73928 18.3232 10.0172C18.0166 10.0651 17.7003 10.0843 17.3841 10.0364C15.6399 9.81594 14.4037 8.22506 14.6241 6.49048C14.6624 6.17423 14.7487 5.87715 14.8828 5.58965C15.1895 5.54173 15.5057 5.52256 15.822 5.57048C17.5662 5.7909 18.8024 7.37215 18.582 9.11631Z" fill="current"/>
</svg>
