<svg width="100%" height="100%" viewBox="0 0 16 14" fill="none" xmlns="http://www.w3.org/2000/svg">
<path d="M0.461357 8.70383C0.159466 8.20054 0 7.62468 0 7.0378C0 6.45091 0.159466 5.87505 0.461357 5.37176C0.55419 5.21682 0.678411 5.08302 0.826036 4.97896C0.973661 4.87489 1.14142 4.80286 1.31855 4.7675L2.78 4.47486C2.86715 4.4576 2.94576 4.41099 3.00271 4.34279L4.78787 2.19938C5.80821 0.973595 6.31924 0.361564 6.77417 0.526441C7.23082 0.691318 7.23082 1.48894 7.23082 3.0842V10.9931C7.23082 12.5875 7.23082 13.3843 6.77503 13.55C6.32011 13.714 5.80907 13.102 4.78873 11.8771L3.00098 9.7328C2.94425 9.66477 2.86598 9.61817 2.77913 9.60073L1.31768 9.30809C1.14056 9.27273 0.972797 9.2007 0.825172 9.09663C0.677547 8.99257 0.55419 8.85877 0.461357 8.70383Z" fill="#7F8CA1"/>
<path d="M9.41992 3.98545C10.2253 4.79084 10.6798 5.88195 10.6841 7.02095C10.6885 8.15996 10.2425 9.25452 9.44323 10.0661M12.9773 2.15454C14.266 3.44306 14.9931 5.1887 15.0002 7.01103C15.0073 8.83335 14.2938 10.5846 13.0153 11.8832" stroke="#7F8CA1" stroke-width="2" stroke-linecap="round"/>
</svg>
