<svg width="100%" height="100%" viewBox="0 0 23 23" fill="none" xmlns="http://www.w3.org/2000/svg">
<mask id="mask0_2221_3040" style="mask-type:luminance" maskUnits="userSpaceOnUse" x="1" y="1" width="21" height="21">
<path d="M21.7014 1.72998H1.29492V21.2089H21.7014V1.72998Z" fill="white"/>
</mask>
<g mask="url(#mask0_2221_3040)">
<path fill-rule="evenodd" clip-rule="evenodd" d="M12.6912 1.75331L20.3862 3.04847C21.2517 3.19414 21.8296 3.98197 21.6769 4.80819L19.4657 16.7787C19.3131 17.6048 18.4877 18.1564 17.6222 18.0108L16.5133 17.8241C16.5198 17.5759 16.4904 17.3229 16.4197 17.0712L15.1016 12.3756C15.9649 11.8407 17.7841 10.5401 18.083 8.92182C18.2206 8.17709 17.6996 7.46691 16.9194 7.33558C16.3743 7.24381 15.8471 7.45919 15.5318 7.85117C15.3761 7.37991 14.9578 7.00543 14.4127 6.91366C14.1255 6.86531 13.8432 6.90244 13.5943 7.00551L13.124 5.3302C12.8279 4.27579 11.8878 3.51056 10.7749 3.37968L10.8478 2.98543C11.0003 2.15929 11.8257 1.60764 12.6912 1.75331ZM10.4351 4.49888C11.1377 4.49884 11.7806 4.94644 11.9712 5.62508L15.2669 17.366C15.4944 18.1763 14.9906 19.0092 14.1417 19.2264L6.59421 21.1568C6.4563 21.192 6.31768 21.2089 6.18138 21.2089C5.47875 21.2089 4.83582 20.7614 4.6453 20.0827L1.34954 8.34174C1.12208 7.53143 1.62586 6.69851 2.47477 6.48139L10.0222 4.551C10.1602 4.51573 10.2988 4.49888 10.4351 4.49888ZM5.97679 13.2187C5.92226 13.3729 5.97005 13.5432 6.09803 13.6507L8.80612 15.9248C9.03266 16.115 9.38905 16.0239 9.48559 15.751L10.6396 12.4891C10.6942 12.335 10.6464 12.1646 10.5184 12.0571L7.81034 9.78307C7.5838 9.59284 7.2274 9.684 7.13087 9.95682L5.97679 13.2187Z" fill="current"/>
</g>
<path fill-rule="evenodd" clip-rule="evenodd" d="M10.4937 4.56104C11.1963 4.56099 11.8392 5.0086 12.0298 5.68723L15.3255 17.4282C15.5529 18.2384 15.0492 19.0714 14.2003 19.2885L6.6528 21.219C6.51489 21.2542 6.37628 21.2711 6.23997 21.2711C5.53734 21.2711 4.89442 20.8235 4.7039 20.1449L1.40813 8.4039C1.18067 7.59359 1.68446 6.76067 2.53336 6.54355L10.0808 4.61316C10.2188 4.57789 10.3574 4.56104 10.4937 4.56104ZM6.03538 13.2809C5.98086 13.435 6.02864 13.6054 6.15662 13.7128L8.86471 15.9869C9.09126 16.1772 9.44765 16.086 9.54418 15.8131L10.6982 12.5512C10.7528 12.3971 10.705 12.2268 10.577 12.1193L7.86893 9.84523C7.6424 9.655 7.286 9.74616 7.18946 10.019L6.03538 13.2809Z" fill="current"/>
</svg>
