<svg width="100%" height="100%" viewBox="0 0 23 23" fill="none" xmlns="http://www.w3.org/2000/svg">
<path d="M18.3197 4.00137C15.4659 3.9502 12.2112 5.44197 10.1511 7.75609C8.1824 7.79324 6.26546 8.60036 4.85409 10.0117C4.77186 10.0927 4.74262 10.214 4.77856 10.3236C4.8151 10.4339 4.91013 10.5137 5.02465 10.5301L7.37226 10.8663L7.08231 11.191C6.9745 11.3116 6.97998 11.495 7.0945 11.6095L11.0094 15.5244C11.0685 15.5835 11.1465 15.6134 11.225 15.6134C11.2975 15.6134 11.37 15.5878 11.4279 15.536L11.7525 15.246L12.0888 17.5937C12.1052 17.7082 12.1954 17.7922 12.3044 17.8288C12.3324 17.8379 12.3617 17.8422 12.3915 17.8422C12.478 17.8422 12.5664 17.8044 12.6273 17.7441C14.0191 16.3522 14.8263 14.4353 14.8634 12.4666C17.18 10.4022 18.6839 7.14878 18.6175 4.29863C18.6133 4.1366 18.4823 4.00563 18.3197 4.00137ZM15.5128 9.25944C15.2161 9.55609 14.8263 9.70472 14.4358 9.70472C14.0453 9.70472 13.6555 9.55609 13.3588 9.25944C12.7655 8.66554 12.7655 7.69944 13.3588 7.10553C13.9528 6.51162 14.9188 6.51162 15.5128 7.10553C16.1067 7.69944 16.1067 8.66614 15.5128 9.25944Z" fill="current"/>
<path d="M5.65933 14.2973C5.00755 14.9491 4.11273 17.8937 4.01283 18.2269C3.98054 18.3341 4.01039 18.4504 4.08897 18.5296C4.14745 18.5881 4.22481 18.6192 4.3046 18.6192C4.33384 18.6192 4.36308 18.6149 4.39232 18.6064C4.72552 18.5065 7.67009 17.6117 8.32187 16.9599C9.05588 16.2259 9.05588 15.0314 8.32187 14.2973C7.58724 13.5633 6.39334 13.5639 5.65933 14.2973Z" fill="current"/>
</svg>
