<svg width="100%" height="100%" fill="none" viewBox="0 0 21 26" xmlns="http://www.w3.org/2000/svg">
    <path d="M19.732 21.221c-2.325 2.425-5.743 3.825-9.546 3.825-3.802 0-7.22-1.342-9.545-3.752a1.626 1.626 0 0 1-.431-1.516c.77-3.247 2.925-5.24 5.758-6.163h.015a8.534 8.534 0 0 0 4.203 1.082c1.54 0 3.002-.404 4.234-1.096 2.818.894 4.958 2.829 5.743 6.105a1.626 1.626 0 0 1-.431 1.515ZM15.9 6.456c0 3.15-2.56 5.714-5.723 5.714a5.72 5.72 0 0 1-5.722-5.714c0-3.15 2.56-5.732 5.722-5.732A5.725 5.725 0 0 1 15.9 6.456Z" fill="current"/>
</svg>
