<svg width="100%" height="100%" fill="none" viewBox="0 0 62 63" xmlns="http://www.w3.org/2000/svg">
    <rect x=".295" y=".939" width="61.409" height="61.409" rx="30.704" fill="#191939"/>
    <rect x="7.457" y="8.109" width="47.086" height="47.086" rx="23.543" fill="#EBCD75"/>
    <path fill-rule="evenodd" clip-rule="evenodd" d="m32.688 21.045 6.816 5.676c.602.502.95 1.244.95 2.028v9.681a2.638 2.638 0 0 1-2.638 2.639h-4.851v-3.834a.983.983 0 0 0-.983-.982h-1.965a.983.983 0 0 0-.982.983v3.833h-4.851a2.638 2.638 0 0 1-2.639-2.639V28.75c0-.784.348-1.526.95-2.028l6.816-5.676a2.64 2.64 0 0 1 3.377 0Z" fill="#262626"/>
</svg>
