<svg width="100%" height="100%" fill="none" viewBox="0 0 24 20" xmlns="http://www.w3.org/2000/svg">
    <path d="M23.255 18.761a1.477 1.477 0 0 1-2.088 0l-2.606-2.606a6.85 6.85 0 0 1-3.706 1.097 6.891 6.891 0 1 1 6.891-6.892c0 1.368-.41 2.635-1.096 3.707l2.605 2.606a1.476 1.476 0 0 1 0 2.088Zm-8.4-13.323a4.922 4.922 0 1 0 0 9.845 4.922 4.922 0 0 0 0-9.845Z" fill="current"/>
    <path fill-rule="evenodd" clip-rule="evenodd" d="M11.459 14.729c.04-.607.07-1.043-.599-1.043H8.817a6.917 6.917 0 0 0 3.537 3.098h4.747l.126-.005c.256-.021-.273-.107-1.102-.24-1.708-.276-4.688-.757-4.688-1.304 0-.177.011-.348.022-.506Zm-2.701 2.055H1.634a1.54 1.54 0 0 1-1.529-1.549c0-.813.618-1.48 1.403-1.544l.125-.005h5.01a8.873 8.873 0 0 0 2.115 3.098Zm-.794-6.324a1.55 1.55 0 0 0 .92-1.421c0-.442-.182-.84-.475-1.122a6.876 6.876 0 0 0-.445 2.543Zm-1.49-2.97A8.845 8.845 0 0 0 6 10.588H1.634a1.54 1.54 0 0 1-1.529-1.55c0-.812.618-1.478 1.403-1.543l.125-.005h4.84Zm2.572-3.815H1.634A1.539 1.539 0 0 1 .105 2.126c0-.813.618-1.48 1.403-1.544l.125-.005h15.468a1.54 1.54 0 0 1 1.514 1.762 8.823 8.823 0 0 0-3.76-.835 8.822 8.822 0 0 0-5.81 2.171Zm4.13 0a6.904 6.904 0 0 1 3.358 0h-3.358Z" fill="current"/>
</svg>
