<svg width="100%" height="100%" fill="none" viewBox="0 0 24 23" xmlns="http://www.w3.org/2000/svg">
    <path d="M14.623 2.348a.359.359 0 0 0-.011-.027L18.018.718a1.353 1.353 0 0 1 1.873.76l.393 1.042c-.323.38-.41 1.037-.177 1.652.232.616.712 1.006 1.18 1.014l.87 2.31h-5.596a.092.092 0 0 0-.008-.02l-.334-.887a.256.256 0 0 0-.354-.143.31.31 0 0 0-.155.383l.252.668H3.607L14.105 2.56c.002.01.006.019.009.028l.334.887c.055.145.213.21.354.143a.309.309 0 0 0 .155-.383l-.334-.887Zm.798 2.12a.256.256 0 0 0-.354-.143.309.309 0 0 0-.155.383l.334.887c.055.145.213.21.354.143a.309.309 0 0 0 .155-.383l-.334-.886Zm2.481 4.175h3.926c.823 0 1.49.667 1.49 1.49v.992c-.45.197-.773.73-.773 1.357s.322 1.16.773 1.357v3.763c-.45.197-.773.73-.773 1.357s.322 1.16.773 1.357v.752a1.49 1.49 0 0 1-1.49 1.49h-3.925a.329.329 0 0 0 .004-.05v-.86a.29.29 0 1 0-.58 0v.86c0 .016.003.033.005.05H1.62a1.49 1.49 0 0 1-1.49-1.49v-.69c.548-.114.966-.706.966-1.42 0-.712-.418-1.304-.966-1.418V13.9c.548-.113.966-.705.966-1.418s-.418-1.305-.966-1.42v-.928c0-.824.667-1.49 1.49-1.49h15.713a.33.33 0 0 0-.004.05v.86a.29.29 0 0 0 .58 0v-.86a.329.329 0 0 0-.006-.05Zm-.285 1.92a.29.29 0 0 0-.29.29v.86a.29.29 0 0 0 .58 0v-.86a.29.29 0 0 0-.29-.29Zm.29 2.448a.29.29 0 1 0-.58 0v.86a.29.29 0 0 0 .58 0v-.86Zm-.29 1.87a.29.29 0 0 0-.29.289v.86a.29.29 0 1 0 .58 0v-.86a.29.29 0 0 0-.29-.29Zm.29 2.448a.29.29 0 1 0-.58 0v.86a.29.29 0 0 0 .58 0v-.86Zm-.29 1.87a.29.29 0 0 0-.29.29v.859a.29.29 0 0 0 .58 0v-.86a.29.29 0 0 0-.29-.29Zm-8.025-7.93a.213.213 0 0 0-.366 0l-1.289 2.163a.211.211 0 0 1-.135.098l-2.455.558a.213.213 0 0 0-.113.348l1.66 1.894a.215.215 0 0 1 .05.16l-.228 2.507a.212.212 0 0 0 .296.215l2.314-.992a.21.21 0 0 1 .167 0l2.314.992a.213.213 0 0 0 .296-.215l-.229-2.507a.213.213 0 0 1 .052-.16l1.659-1.894a.213.213 0 0 0-.113-.348l-2.455-.558a.209.209 0 0 1-.135-.098l-1.29-2.163Z" fill="current"/>
</svg>
