<svg width="100%" height="100%" viewBox="0 0 24 22" fill="none" xmlns="http://www.w3.org/2000/svg">
<path d="M14.4474 1.76833C14.4441 1.75915 14.4399 1.74996 14.4357 1.74078L17.8433 0.138002C18.5879 -0.212606 19.4261 0.127984 19.7166 0.897652L20.1089 1.94029C19.7867 2.32012 19.6999 2.97709 19.9319 3.59232C20.164 4.20756 20.644 4.59824 21.1131 4.60575L21.983 6.91642H16.3858C16.3841 6.90891 16.3816 6.90223 16.3783 6.89555L16.0444 6.00901C15.9893 5.86376 15.8307 5.79948 15.6904 5.86543C15.5502 5.93138 15.48 6.10334 15.5351 6.2486L15.7872 6.91726H3.43166L13.929 1.97953C13.9315 1.98955 13.9349 1.99873 13.9382 2.00791L14.2721 2.89445C14.3272 3.0397 14.485 3.10398 14.6261 3.03803C14.7671 2.97208 14.8364 2.80012 14.7813 2.65487L14.4474 1.76833ZM15.2455 3.88867C15.1904 3.74342 15.0326 3.67914 14.8915 3.74509C14.7505 3.81104 14.6812 3.983 14.7363 4.12825L15.0702 5.01479C15.1253 5.16004 15.283 5.22432 15.4241 5.15837C15.5652 5.09243 15.6345 4.92046 15.5794 4.77521L15.2455 3.88867ZM17.7264 8.06341H21.6524C22.4755 8.06341 23.1425 8.7304 23.1425 9.55349V10.5444C22.6917 10.7422 22.3695 11.2748 22.3695 11.9017C22.3695 12.5287 22.6917 13.0612 23.1425 13.2591V17.0214C22.6917 17.2193 22.3695 17.7519 22.3695 18.3788C22.3695 19.0057 22.6917 19.5383 23.1425 19.7361V20.4875C23.1425 21.3105 22.4755 21.9775 21.6524 21.9775H17.7273C17.7298 21.9617 17.7315 21.9441 17.7315 21.9274V21.0676C17.7315 20.9073 17.6021 20.778 17.4418 20.778C17.2815 20.778 17.1521 20.9082 17.1521 21.0676V21.9274C17.1521 21.9441 17.1538 21.9608 17.1563 21.9775H1.44321C0.620115 21.9775 -0.046875 21.3105 -0.046875 20.4875V19.7979C0.501576 19.6836 0.918966 19.0917 0.918966 18.3788C0.918966 17.6659 0.501576 17.074 -0.046875 16.9597V13.3209C0.501576 13.2065 0.918966 12.6146 0.918966 11.9017C0.918966 11.1888 0.501576 10.597 -0.046875 10.4826V9.55349C-0.046875 8.7304 0.620115 8.06341 1.44321 8.06341H17.1563C17.1538 8.07927 17.1521 8.0968 17.1521 8.1135V8.97332C17.1521 9.1336 17.2823 9.26299 17.4418 9.26299C17.6012 9.26299 17.7315 9.1336 17.7315 8.97332V8.1135C17.7315 8.0968 17.7289 8.07927 17.7264 8.06341ZM17.4409 9.98257C17.2807 9.98257 17.1513 10.112 17.1513 10.2722V11.1321C17.1513 11.2923 17.2815 11.4217 17.4409 11.4217C17.6004 11.4217 17.7306 11.2923 17.7306 11.1321V10.2722C17.7306 10.112 17.6012 9.98257 17.4409 9.98257ZM17.7315 12.431C17.7315 12.2707 17.6021 12.1413 17.4418 12.1413C17.2815 12.1413 17.1521 12.2707 17.1521 12.431V13.2908C17.1521 13.4511 17.2823 13.5805 17.4418 13.5805C17.6012 13.5805 17.7315 13.4502 17.7315 13.2908V12.431ZM17.4418 14.3001C17.2815 14.3001 17.1521 14.4294 17.1521 14.5897V15.4495C17.1521 15.6098 17.2815 15.7392 17.4418 15.7392C17.6021 15.7392 17.7315 15.6098 17.7315 15.4495V14.5897C17.7315 14.4294 17.6021 14.3001 17.4418 14.3001ZM17.7315 16.7493C17.7315 16.589 17.6021 16.4596 17.4418 16.4596C17.2815 16.4596 17.1521 16.5899 17.1521 16.7493V17.6091C17.1521 17.7694 17.2823 17.8988 17.4418 17.8988C17.6012 17.8988 17.7315 17.7686 17.7315 17.6091V16.7493ZM17.4409 18.6184C17.2807 18.6184 17.1513 18.7478 17.1513 18.908V19.7679C17.1513 19.9282 17.2815 20.0575 17.4409 20.0575C17.6004 20.0575 17.7306 19.9282 17.7306 19.7679V18.908C17.7306 18.7478 17.6012 18.6184 17.4409 18.6184ZM9.4162 10.6888C9.33356 10.5502 9.13321 10.5502 9.05057 10.6888L7.76166 12.8517C7.73161 12.9018 7.6832 12.9377 7.62643 12.9502L5.17134 13.5078C5.0144 13.5437 4.95179 13.7341 5.05864 13.856L6.71735 15.7501C6.75575 15.7943 6.77412 15.8519 6.76911 15.9095L6.54038 18.4172C6.52535 18.5775 6.68814 18.696 6.83589 18.6317L9.14991 17.64C9.20333 17.6166 9.26427 17.6166 9.3177 17.64L11.6317 18.6317C11.7795 18.6952 11.9422 18.5775 11.9272 18.4172L11.6985 15.9095C11.6935 15.8511 11.7118 15.7935 11.7502 15.7501L13.409 13.856C13.515 13.7349 13.4532 13.5437 13.2963 13.5078L10.8412 12.9502C10.7844 12.9377 10.7352 12.9018 10.7059 12.8517L9.4162 10.6888Z" fill="current"/>
</svg>
