<svg width="100%" height="100%" fill="none" viewBox="0 0 25 25" xmlns="http://www.w3.org/2000/svg">
    <path d="M12.113 8.386a8.23 8.23 0 0 0-8.247 8.25 8.201 8.201 0 0 0 8.247 8.25 8.23 8.23 0 0 0 8.247-8.25c0-4.547-3.702-8.25-8.247-8.25Zm4.31 7.406-1.78 1.734.422 2.438c.093.422-.375.75-.797.562l-2.155-1.172-2.203 1.172c-.421.188-.89-.14-.796-.562l.421-2.438-1.78-1.734c-.328-.328-.14-.844.281-.938l2.484-.328 1.077-2.25a.515.515 0 0 1 .469-.281c.234 0 .421.094.515.281l1.078 2.25 2.483.328c.422.094.61.61.282.938ZM7.33 1.635l3.234 5.391c-1.968.328-3.75 1.219-5.108 2.531L.208 2.104C-.12 1.59.255.885.864.885h5.201c.469 0 1.031.329 1.265.75ZM18.108.885h5.201c.61 0 .984.704.656 1.22l-5.248 7.452c-1.358-1.312-3.139-2.203-5.107-2.53l3.233-5.392c.281-.468.75-.75 1.265-.75Z" fill="current"/>
</svg>
