<svg width="100%" height="100%" viewBox="0 0 18 18" fill="none" xmlns="http://www.w3.org/2000/svg">
<circle cx="8.58437" cy="8.56569" r="8.49062" fill="#F7A60B"/>
<path d="M10.3357 8.46274C10.8282 8.56771 11.2239 8.81399 11.5227 9.20158C11.8214 9.5811 11.9708 10.0171 11.9708 10.5097C11.9708 11.2203 11.7205 11.7855 11.2199 12.2054C10.7273 12.6172 10.0369 12.8231 9.14867 12.8231H5.18799V4.32037H9.01544C9.87944 4.32037 10.5537 4.51821 11.0382 4.91387C11.5307 5.30953 11.777 5.84651 11.777 6.52479C11.777 7.02543 11.6438 7.44128 11.3773 7.77234C11.1189 8.10341 10.7717 8.33354 10.3357 8.46274ZM7.25917 7.76023H8.61573C8.95488 7.76023 9.21327 7.68756 9.39091 7.54221C9.57663 7.38879 9.66949 7.16674 9.66949 6.87604C9.66949 6.58535 9.57663 6.36329 9.39091 6.20987C9.21327 6.05645 8.95488 5.97974 8.61573 5.97974H7.25917V7.76023ZM8.78531 11.1516C9.13252 11.1516 9.39899 11.0749 9.58471 10.9215C9.7785 10.76 9.8754 10.5299 9.8754 10.2311C9.8754 9.93235 9.77447 9.69818 9.5726 9.52861C9.3788 9.35904 9.1083 9.27425 8.76108 9.27425H7.25917V11.1516H8.78531Z" fill="#090C1D"/>
</svg>
