<svg width="100%" height="100%" viewBox="0 0 16 13" fill="none" xmlns="http://www.w3.org/2000/svg">
<path d="M0 4H4L7 12.6L0 4ZM16 4H12L9 12.6L16 4ZM8 13L5 4H11L8 13ZM4 3H0L2 0L4 3ZM16 3H12L14 0L16 3ZM10 3H6L8 0L10 3ZM3.34 0H7L5 3L3.34 0ZM9 0H13L11 3L9 0Z" fill="url(#paint0_linear_2879_327704)"/>
<defs>
<linearGradient id="paint0_linear_2879_327704" x1="8" y1="0" x2="8" y2="13" gradientUnits="userSpaceOnUse">
<stop stop-color="#FFE598"/>
<stop offset="1" stop-color="#F1B80E"/>
</linearGradient>
</defs>
</svg>
