<svg width="100%" height="100%" viewBox="0 0 56 56" fill="none" xmlns="http://www.w3.org/2000/svg">
<path d="M0 28C0 12.536 12.536 0 28 0C43.464 0 56 12.536 56 28C56 43.464 43.464 56 28 56C12.536 56 0 43.464 0 28Z" fill="url(#paint0_linear_2879_327568)"/>
<path d="M28 20C34.075 20 39 22.686 39 26V30C39 33.314 34.075 36 28 36C22.033 36 17.176 33.409 17.005 30.177L17 30V26C17 22.686 21.925 20 28 20ZM28 32C24.28 32 20.99 30.992 19 29.45V30C19 31.882 22.883 34 28 34C33.01 34 36.838 31.97 36.995 30.118L37 30L37.001 29.45C35.011 30.992 31.721 32 28 32ZM28 22C22.883 22 19 24.118 19 26C19 27.882 22.883 30 28 30C33.117 30 37 27.882 37 26C37 24.118 33.117 22 28 22Z" fill="#F5C842"/>
<defs>
<linearGradient id="paint0_linear_2879_327568" x1="0" y1="0" x2="56" y2="56" gradientUnits="userSpaceOnUse">
<stop stop-color="#F5C842" stop-opacity="0.2"/>
<stop offset="1" stop-color="#F5C842" stop-opacity="0.05"/>
</linearGradient>
</defs>
</svg>
