<svg width="100%" height="100%" viewBox="0 0 56 56" fill="none" xmlns="http://www.w3.org/2000/svg">
<path d="M0 28C0 12.536 12.536 0 28 0C43.464 0 56 12.536 56 28C56 43.464 43.464 56 28 56C12.536 56 0 43.464 0 28Z" fill="url(#paint0_linear_2879_327593)"/>
<path d="M34.8622 30.0901C34.5902 30.2869 34.3954 30.4073 34.2249 30.556C33.4181 31.2554 32.6123 31.9683 31.503 32.0636C31.0707 32.1013 30.6303 32.028 30.1918 32.005C30.204 31.8301 30.1939 31.7788 30.2111 31.7652C31.1001 31.0512 31.6157 30.043 32.2094 29.0923C32.5727 28.5102 33.0284 28.0223 33.7641 27.9511C33.8585 27.9417 34.024 27.8129 34.0158 27.7627C33.9976 27.6423 33.9194 27.4989 33.823 27.4277C32.9056 26.7566 31.8958 26.6246 30.8322 26.9502C30.4313 27.0727 30.0508 27.2633 29.6631 27.4224C29.8864 25.8059 31.7496 24.4846 33.4577 24.761C34.8328 24.9841 35.9238 25.608 36.349 27.0937C36.3865 27.2266 36.4058 27.3669 36.419 27.5041C36.4738 28.0799 36.7516 28.2638 37.2522 28.0558C38.7603 27.4319 40.1791 27.8517 41.0711 29.2462C41.9622 30.6408 42.221 32.1683 41.811 33.7984C41.7755 33.9387 41.7125 34.0717 41.6395 34.2717C41.0569 31.8919 40.2055 30.6104 39.0221 30.3738C39.3915 32.2468 38.8963 33.8016 37.3984 35.0202C37.7373 33.1692 36.3317 32.0071 35.8629 30.4848C35.8162 30.4785 35.7695 30.4712 35.7228 30.4649C35.6477 30.712 35.5635 30.957 35.4985 31.2072C34.8775 33.5953 33.889 35.8013 32.3545 37.7109C29.2744 41.5428 25.3438 42.7165 20.707 41.592C19.1532 41.2151 17.6959 40.5744 16.2822 39.8049C17.1905 39.8049 18.0876 39.8426 18.9807 39.7975C21.1738 39.6866 23.238 39.1285 24.9278 37.5989C27.2792 35.4694 27.9135 32.7441 27.2853 29.6703C26.8063 27.3261 25.6077 25.3892 23.9078 23.7748C23.4278 23.3194 23.2725 23.3906 23.1122 24.025C23.0249 24.3716 22.894 24.7338 22.69 25.0186C21.7391 26.3482 21.5797 27.7899 22.0283 29.3394C22.0567 29.4389 22.075 29.5415 22.0912 29.6441C22.0953 29.6744 22.074 29.7079 22.0445 29.8032C20.7415 29.3405 19.6616 28.5961 18.9695 27.346C18.2703 26.0844 18.2682 24.7286 18.5636 23.3068C17.2676 23.8481 16.4009 24.7642 15.9655 26.1022C15.5352 27.4245 15.722 28.7133 16.1807 29.9959C15.1719 28.8945 14.4442 27.6308 14.1489 26.142C13.7978 24.3674 14.0373 22.6954 15.1699 21.2485C16.4659 19.5932 18.319 19.1985 20.165 20.1471C20.2624 20.1973 20.3741 20.2193 20.5588 20.2821C20.5395 20.0822 20.5476 19.9492 20.5111 19.8298C19.7489 17.3412 20.9394 15.6964 22.5063 14.794C25.4788 13.0811 30.0244 14.2485 31.7791 17.2658C28.6381 16.2409 25.7224 16.2984 23.2299 18.8635C23.3649 18.8719 23.5009 18.8876 23.6358 18.8865C24.3117 18.8792 24.9886 18.8415 25.6635 18.8625C26.4186 18.8855 27.1097 19.1577 27.6039 19.7534C28.5914 20.9438 29.6276 22.0473 31.1823 22.4556C31.1844 22.5247 31.1854 22.5938 31.1874 22.6619C30.4283 22.9069 29.6844 23.244 28.907 23.377C27.3614 23.6398 25.8756 23.3937 24.5198 22.5153C24.3848 22.4284 24.192 22.4357 24.0266 22.4001C24.1017 22.5687 24.1352 22.7844 24.2569 22.8995C26.0603 24.6082 27.4477 26.587 28.1317 29.0473C29.176 32.808 27.9815 36.8933 25.1013 39.2332C24.603 39.6384 24.0012 39.9064 23.4562 40.253C23.303 40.3503 23.1822 40.5042 23.0472 40.632C23.2258 40.699 23.4045 40.8257 23.5821 40.8236C26.6622 40.8005 29.2866 39.6625 31.4076 37.3476C33.1715 35.4233 34.234 33.1116 34.8389 30.5591C34.8643 30.4513 34.8521 30.333 34.8632 30.088L34.8622 30.0901Z" fill="#F5C842"/>
<defs>
<linearGradient id="paint0_linear_2879_327593" x1="0" y1="0" x2="56" y2="56" gradientUnits="userSpaceOnUse">
<stop stop-color="#F5C842" stop-opacity="0.2"/>
<stop offset="1" stop-color="#F5C842" stop-opacity="0.05"/>
</linearGradient>
</defs>
</svg>
