<svg width="100%" height="100%" viewBox="0 0 108 60" fill="none" xmlns="http://www.w3.org/2000/svg">
<path d="M99 0.75H40.5C35.55 0.75 31.5 4.8 31.5 9.75V50.25C31.5 52.6369 32.4482 54.9261 34.136 56.614C35.8239 58.3018 38.1131 59.25 40.5 59.25H99C103.995 59.25 108 55.245 108 50.25V9.75C108 7.36305 107.052 5.07387 105.364 3.38604C103.676 1.69821 101.387 0.75 99 0.75ZM99 17.265L69.75 32.25L40.5 17.265V9.75L69.75 24.645L99 9.75V17.265ZM22.5 50.25C22.5 51.015 22.635 51.735 22.725 52.5H4.5C2.016 52.5 0 50.475 0 48C0 45.525 2.016 43.5 4.5 43.5H22.5V50.25ZM13.5 7.5H22.725C22.635 8.265 22.5 8.985 22.5 9.75V16.5H13.5C11.025 16.5 9 14.475 9 12C9 9.525 11.025 7.5 13.5 7.5ZM4.5 30C4.5 27.525 6.525 25.5 9 25.5H22.5V34.5H9C6.525 34.5 4.5 32.475 4.5 30Z" fill="#FFC44D"/>
</svg>
