<svg width="100%" height="100%" viewBox="0 0 40 32" fill="none" xmlns="http://www.w3.org/2000/svg">
<path d="M35.9999 8L19.9999 18L3.99988 8V4L19.9999 14L35.9999 4M35.9999 0H3.99988C1.77988 0 -0.00012207 1.78 -0.00012207 4V28C-0.00012207 29.0609 0.421305 30.0783 1.17145 30.8284C1.9216 31.5786 2.93901 32 3.99988 32H35.9999C37.0607 32 38.0782 31.5786 38.8283 30.8284C39.5784 30.0783 39.9999 29.0609 39.9999 28V4C39.9999 2.93913 39.5784 1.92172 38.8283 1.17157C38.0782 0.421427 37.0607 0 35.9999 0Z" fill="#FAD35E"/>
</svg>
