<svg width="100%" height="100%" viewBox="0 0 56 56" fill="none" xmlns="http://www.w3.org/2000/svg">
<path d="M0 28C0 12.536 12.536 0 28 0C43.464 0 56 12.536 56 28C56 43.464 43.464 56 28 56C12.536 56 0 43.464 0 28Z" fill="url(#paint0_linear_2879_327584)"/>
<path d="M37.3333 23.3334H18.6667C18.0223 23.3334 17.5 23.8557 17.5 24.5V26.8334C17.5 27.4777 18.0223 28 18.6667 28H37.3333C37.9777 28 38.5 27.4777 38.5 26.8334V24.5C38.5 23.8557 37.9777 23.3334 37.3333 23.3334Z" stroke="#F5C842" stroke-width="2.33333" stroke-linecap="round" stroke-linejoin="round"/>
<path d="M28 23.3334V38.5" stroke="#F5C842" stroke-width="2.33333" stroke-linecap="round" stroke-linejoin="round"/>
<path d="M36.1666 28V36.1667C36.1666 36.7855 35.9208 37.379 35.4832 37.8166C35.0456 38.2542 34.4522 38.5 33.8333 38.5H22.1666C21.5478 38.5 20.9543 38.2542 20.5167 37.8166C20.0791 37.379 19.8333 36.7855 19.8333 36.1667V28" stroke="#F5C842" stroke-width="2.33333" stroke-linecap="round" stroke-linejoin="round"/>
<path d="M22.75 23.3334C21.9764 23.3334 21.2346 23.0261 20.6876 22.4791C20.1406 21.9321 19.8333 21.1902 19.8333 20.4167C19.8333 19.6431 20.1406 18.9013 20.6876 18.3543C21.2346 17.8073 21.9764 17.5 22.75 17.5C23.8754 17.4804 24.9783 18.0265 25.9148 19.067C26.8513 20.1076 27.578 21.5943 28 23.3334C28.422 21.5943 29.1486 20.1076 30.0851 19.067C31.0216 18.0265 32.1245 17.4804 33.25 17.5C34.0235 17.5 34.7654 17.8073 35.3124 18.3543C35.8594 18.9013 36.1666 19.6431 36.1666 20.4167C36.1666 21.1902 35.8594 21.9321 35.3124 22.4791C34.7654 23.0261 34.0235 23.3334 33.25 23.3334" stroke="#F5C842" stroke-width="2.33333" stroke-linecap="round" stroke-linejoin="round"/>
<defs>
<linearGradient id="paint0_linear_2879_327584" x1="0" y1="0" x2="56" y2="56" gradientUnits="userSpaceOnUse">
<stop stop-color="#F5C842" stop-opacity="0.2"/>
<stop offset="1" stop-color="#F5C842" stop-opacity="0.05"/>
</linearGradient>
</defs>
</svg>
