<svg width="100%" height="100%" viewBox="0 0 20 20" fill="none" xmlns="http://www.w3.org/2000/svg">
<g clip-path="url(#clip0_1455_10783)">
<path d="M6.98718 3.48625C5.48121 3.50201 4.57569 2.8865 3.59948 3.45012C2.62327 4.01374 2.21814 5.13954 2.69447 5.96466L6.98721 3.48627L6.98718 3.48625Z" fill="#FFC44D"/>
<path d="M7.36674 3.26731C8.13333 1.97096 8.05309 0.879047 9.02928 0.315447C10.0056 -0.248173 11.183 -0.0361568 11.6594 0.788944L7.3667 3.26733L7.36674 3.26731Z" fill="#FFC44D"/>
<path d="M0.88313 8.00421C0.470473 8.24253 0.329087 8.77014 0.567329 9.18274L1.86139 11.4241L8.58555 7.5419L6.86149 4.55565L8.35577 3.6929L10.0798 6.67915L16.804 2.79696L15.5099 0.555554C15.2716 0.142898 14.7441 0.00151093 14.3315 0.239753L0.883091 8.00415L0.88313 8.00421Z" fill="#FFC44D"/>
<path d="M10.0584 11.373H3.15674V19.1375C3.15674 19.614 3.54299 20.0002 4.01949 20.0002H10.0586V11.373H10.0584ZM11.7839 11.373V20.0002H16.9602C17.4368 20.0002 17.823 19.614 17.823 19.1375V11.373H11.7839H11.7839Z" fill="#FFC44D"/>
<path d="M13.9406 10.0787C13.9406 10.3168 14.1337 10.51 14.3719 10.51C14.61 10.51 14.8032 10.3169 14.8032 10.0787V9.21608H15.6658C15.9039 9.21608 16.0971 9.02294 16.0971 8.78478C16.0971 8.54662 15.904 8.35348 15.6658 8.35348H14.8032V7.49087C14.8032 7.25266 14.61 7.05957 14.3719 7.05957C14.1337 7.05957 13.9406 7.25266 13.9406 7.49087V8.35348H13.078C12.8398 8.35348 12.6467 8.54662 12.6467 8.78478C12.6467 9.02294 12.8398 9.21608 13.078 9.21608H13.9406V10.0787Z" fill="#FFC44D"/>
<path d="M17.3914 6.62752C17.3914 6.86572 17.5846 7.05882 17.8227 7.05882C18.0609 7.05882 18.254 6.86572 18.254 6.62752V5.76491H19.1167C19.3548 5.76491 19.548 5.57181 19.548 5.33361C19.548 5.0954 19.3548 4.90231 19.1167 4.90231H18.254V4.0397C18.254 3.80149 18.0609 3.6084 17.8227 3.6084C17.5846 3.6084 17.3914 3.80149 17.3914 4.0397V4.90231H16.5288C16.2907 4.90231 16.0975 5.0954 16.0975 5.33361C16.0975 5.57181 16.2907 5.76491 16.5288 5.76491H17.3914V6.62752Z" fill="#FFC44D"/>
</g>
<defs>
<clipPath id="clip0_1455_10783">
<rect width="20" height="20" fill="white"/>
</clipPath>
</defs>
</svg>
