<svg width="100%" height="100%" viewBox="0 0 20 19" fill="none" xmlns="http://www.w3.org/2000/svg">
<path d="M14.5 1C17.0289 1 19 2.96348 19 5.5C19 7.05624 18.3069 8.55147 16.8818 10.2949C15.8048 11.6125 14.3699 13.0025 12.625 14.6074L10.7783 16.2891L10.7764 16.29L10 16.9971L9.22363 16.29L9.22168 16.2891L7.375 14.6074C5.63013 13.0025 4.19518 11.6125 3.11816 10.2949C1.69311 8.55147 1 7.05624 1 5.5C1 2.96348 2.97109 1 5.5 1C6.9377 1 8.33417 1.67462 9.24121 2.73145L10 3.61523L10.7588 2.73145C11.6658 1.67462 13.0623 1 14.5 1Z" fill="current" stroke="current" stroke-width="2"/>
</svg>
