<svg width="100%" height="100%" viewBox="0 0 18 18" fill="none" xmlns="http://www.w3.org/2000/svg">
<circle cx="8.58437" cy="8.77639" r="8.49062" fill="#EBCD75"/>
<path d="M6.23777 12.1632C5.72293 12.1632 5.26158 12.0846 4.85373 11.9273C4.44587 11.7701 4.11825 11.5374 3.87086 11.2292C3.63016 10.921 3.50312 10.55 3.48975 10.116H5.31507C5.34182 10.3613 5.43208 10.55 5.58586 10.682C5.73965 10.8078 5.94023 10.8707 6.18762 10.8707C6.44169 10.8707 6.64228 10.8173 6.78938 10.7103C6.93647 10.5971 7.01002 10.4431 7.01002 10.2481C7.01002 10.0846 6.94984 9.94934 6.82949 9.84242C6.71583 9.7355 6.57207 9.64745 6.39823 9.57827C6.23108 9.50908 5.99038 9.43047 5.67613 9.34242C5.22147 9.21034 4.85038 9.07826 4.56288 8.94619C4.27537 8.81411 4.02798 8.61914 3.82071 8.36128C3.61344 8.10341 3.5098 7.76693 3.5098 7.35184C3.5098 6.73548 3.74716 6.25435 4.22188 5.90843C4.6966 5.55623 5.31507 5.38013 6.0773 5.38013C6.85289 5.38013 7.47805 5.55623 7.95277 5.90843C8.42749 6.25435 8.68156 6.73863 8.715 7.36127H6.85958C6.84621 7.14743 6.76263 6.98077 6.60885 6.86127C6.45507 6.73548 6.25782 6.67259 6.01712 6.67259C5.80985 6.67259 5.6427 6.72605 5.51566 6.83297C5.38862 6.9336 5.3251 7.0814 5.3251 7.27637C5.3251 7.4902 5.43208 7.65687 5.64604 7.77637C5.86 7.89587 6.19431 8.0248 6.64897 8.16316C7.10363 8.30782 7.47137 8.44618 7.75218 8.57826C8.03969 8.71034 8.28708 8.90216 8.49435 9.15374C8.70162 9.40531 8.80526 9.72921 8.80526 10.1254C8.80526 10.5028 8.70162 10.8456 8.49435 11.1537C8.29377 11.4619 7.99957 11.7072 7.61178 11.8896C7.22398 12.072 6.76597 12.1632 6.23777 12.1632Z" fill="#090C1D"/>
<path d="M8.18245 9.46506C8.18245 8.91788 8.29946 8.43989 8.53347 8.03109C8.77418 7.62228 9.10514 7.30781 9.52637 7.08768C9.95429 6.86756 10.4424 6.75749 10.9906 6.75749C11.6927 6.75749 12.2777 6.93045 12.7458 7.27637C13.2205 7.62228 13.5314 8.1097 13.6785 8.73864H11.8532C11.6994 8.33612 11.4018 8.13486 10.9606 8.13486C10.6463 8.13486 10.3956 8.25121 10.2084 8.48392C10.0211 8.71034 9.92754 9.03738 9.92754 9.46506C9.92754 9.89273 10.0211 10.2229 10.2084 10.4556C10.3956 10.682 10.6463 10.7953 10.9606 10.7953C11.4018 10.7953 11.6994 10.594 11.8532 10.1915H13.6785C13.5314 10.8078 13.2205 11.2921 12.7458 11.6443C12.271 11.9965 11.686 12.1726 10.9906 12.1726C10.4424 12.1726 9.95429 12.0626 9.52637 11.8424C9.10514 11.6223 8.77418 11.3078 8.53347 10.899C8.29946 10.4902 8.18245 10.0122 8.18245 9.46506Z" fill="#090C1D"/>
</svg>
