<svg width="100%" height="100%" viewBox="0 0 37 38" fill="none" xmlns="http://www.w3.org/2000/svg">
<path d="M21.3171 1.41113V1.41211C22.2036 1.40083 23.0723 1.67196 23.7927 2.18652L23.9353 2.29297L23.9373 2.29395C24.6912 2.88708 25.2171 3.72305 25.4109 4.66699L25.8318 6.68555C25.884 6.71447 25.9362 6.74311 25.988 6.77246L28.0476 6.09766L28.0505 6.09668C28.5993 5.91959 29.1789 5.85823 29.7527 5.91602C30.3266 5.97385 30.8829 6.15045 31.3855 6.43359C32.0041 6.78234 32.5273 7.28444 32.8943 7.90234L35.6267 12.4102L35.7205 12.5654C36.1682 13.35 36.3385 14.2648 36.2009 15.1611C36.0541 16.1174 35.5664 16.9884 34.8279 17.6133L34.6667 17.75H34.6628L33.2224 18.9785V19.0811L34.8015 20.4893C35.5257 21.1039 36.0082 21.9563 36.1628 22.8936C36.3171 23.8288 36.1342 24.7879 35.6482 25.6016L35.6492 25.6025L33.0759 29.9932V30.002L32.9939 30.1387C32.627 30.7525 32.1072 31.2607 31.4851 31.6133C30.8637 31.9654 30.1612 32.1497 29.447 32.1494H29.446L29.4441 32.1504V32.1494C29.0045 32.1514 28.5672 32.0859 28.1482 31.9531L28.1277 31.9463L28.1033 31.9365L26.0945 31.2734C26.0372 31.3059 25.9794 31.3376 25.9216 31.3691L25.5056 33.3789C25.3112 34.321 24.7878 35.1625 24.03 35.7549C23.2819 36.3402 22.3565 36.6513 21.407 36.6367V36.6377H15.9363V36.6367C14.9883 36.6502 14.064 36.3402 13.3171 35.7559V35.7549C12.5602 35.1632 12.0375 34.3226 11.8425 33.3818L11.4216 31.3652C11.3674 31.3353 11.3134 31.305 11.2595 31.2744L9.20581 31.9482L9.20288 31.9492C8.65394 32.1264 8.07368 32.1877 7.49976 32.1299C6.92601 32.072 6.37034 31.8963 5.86792 31.6133V31.6123C5.24468 31.264 4.72291 30.7592 4.3562 30.1465V30.1455L1.61792 25.6221V25.6211C1.12411 24.8211 0.926939 23.873 1.06128 22.9424C1.19326 22.0285 1.63637 21.1887 2.31519 20.5645L3.76831 18.7324L2.45093 17.5586C1.72609 16.9433 1.24377 16.0906 1.0896 15.1523C0.935444 14.2138 1.11984 13.2506 1.61011 12.4355L1.64624 12.375L1.65308 12.3672L4.35815 7.90234C4.71992 7.2955 5.23227 6.79239 5.84546 6.44141C6.46022 6.08959 7.15572 5.90206 7.86401 5.89844C8.17284 5.88402 8.47908 5.90277 8.78198 5.95508L9.09253 6.02051L9.10425 6.02344L9.15796 6.03809L9.17749 6.04395L9.198 6.05078L11.2234 6.76367C11.275 6.73476 11.3267 6.70603 11.3787 6.67773L11.7957 4.6709L11.8367 4.49512C12.057 3.62392 12.5606 2.84845 13.2712 2.29297C14.0166 1.70875 14.9453 1.39994 15.8904 1.41211V1.41113H21.3171ZM18.6326 12.3008C16.8496 12.3008 15.1394 13.0096 13.8787 14.2705C12.6181 15.5314 11.9099 17.2413 11.9099 19.0244C11.9099 20.8075 12.6181 22.5174 13.8787 23.7783C15.1394 25.0392 16.8496 25.748 18.6326 25.748C20.4156 25.748 22.1257 25.0392 23.3865 23.7783C24.6471 22.5174 25.3552 20.8075 25.3552 19.0244C25.3552 17.2413 24.6471 15.5314 23.3865 14.2705C22.1257 13.0096 20.4156 12.3008 18.6326 12.3008ZM18.6326 13.5791C20.0765 13.5791 21.4612 14.1537 22.4822 15.1748C23.5031 16.1959 24.0769 17.5804 24.0769 19.0244C24.0769 20.4685 23.5032 21.8539 22.4822 22.875C21.4612 23.8959 20.0764 24.4697 18.6326 24.4697C17.1888 24.4697 15.8039 23.8959 14.783 22.875C13.7619 21.8539 13.1882 20.4685 13.1882 19.0244C13.1882 17.5805 13.7621 16.1959 14.783 15.1748C15.804 14.1537 17.1886 13.5791 18.6326 13.5791Z" fill="#0D1835" stroke="#EBCD75" stroke-width="1.155"/>
</svg>
