<svg width="100%" height="100%" viewBox="0 0 56 56" fill="none" xmlns="http://www.w3.org/2000/svg">
<path d="M0 28C0 12.536 12.536 0 28 0C43.464 0 56 12.536 56 28C56 43.464 43.464 56 28 56C12.536 56 0 43.464 0 28Z" fill="url(#paint0_linear_2879_327573)"/>
<path d="M21 24.5H19.25C18.4764 24.5 17.7346 24.1927 17.1876 23.6457C16.6406 23.0987 16.3333 22.3568 16.3333 21.5833C16.3333 20.8097 16.6406 20.0679 17.1876 19.5209C17.7346 18.9739 18.4764 18.6666 19.25 18.6666H21" stroke="#F5C842" stroke-width="2.33333" stroke-linecap="round" stroke-linejoin="round"/>
<path d="M35 24.5H36.75C37.5235 24.5 38.2654 24.1927 38.8124 23.6457C39.3594 23.0987 39.6667 22.3568 39.6667 21.5833C39.6667 20.8097 39.3594 20.0679 38.8124 19.5209C38.2654 18.9739 37.5235 18.6666 36.75 18.6666H35" stroke="#F5C842" stroke-width="2.33333" stroke-linecap="round" stroke-linejoin="round"/>
<path d="M18.6667 39.6666H37.3334" stroke="#F5C842" stroke-width="2.33333" stroke-linecap="round" stroke-linejoin="round"/>
<path d="M25.6667 31.1033V33.8333C25.6667 34.4749 25.1184 34.9766 24.535 35.2449C23.1584 35.8749 22.1667 37.6133 22.1667 39.6666" stroke="#F5C842" stroke-width="2.33333" stroke-linecap="round" stroke-linejoin="round"/>
<path d="M30.3333 31.1033V33.8333C30.3333 34.4749 30.8816 34.9766 31.465 35.2449C32.8416 35.8749 33.8333 37.6133 33.8333 39.6666" stroke="#F5C842" stroke-width="2.33333" stroke-linecap="round" stroke-linejoin="round"/>
<path d="M35 16.3334H21V24.5C21 26.3566 21.7375 28.137 23.0503 29.4498C24.363 30.7625 26.1435 31.5 28 31.5C29.8565 31.5 31.637 30.7625 32.9497 29.4498C34.2625 28.137 35 26.3566 35 24.5V16.3334Z" stroke="#F5C842" stroke-width="2.33333" stroke-linecap="round" stroke-linejoin="round"/>
<defs>
<linearGradient id="paint0_linear_2879_327573" x1="0" y1="0" x2="56" y2="56" gradientUnits="userSpaceOnUse">
<stop stop-color="#F5C842" stop-opacity="0.2"/>
<stop offset="1" stop-color="#F5C842" stop-opacity="0.05"/>
</linearGradient>
</defs>
</svg>
