<svg width="100%" height="100%" viewBox="0 0 16 16" fill="none" xmlns="http://www.w3.org/2000/svg">
<path fill-rule="evenodd" clip-rule="evenodd" d="M16 16L2.54292e-07 16L9.53674e-07 -6.99382e-07L16 0L16 16ZM14.2222 14.2222L14.2222 5.33333L1.77779 5.33333L1.77779 14.2222L14.2222 14.2222ZM14.2222 1.77779L14.2222 3.55554L12.4445 3.55554L12.4445 1.77779L14.2222 1.77779ZM10.6667 1.77779L10.6667 3.55554L8.88254 3.55554L8.88254 1.77779L10.6667 1.77779ZM3.55554 3.55554L1.77779 3.55554L1.77779 1.77779L3.55554 1.77779L3.55554 3.55554ZM7.10475 3.55554L5.33333 3.55554L5.33333 1.77779L7.10475 1.77779L7.10475 3.55554ZM11.7397 9.96187L10.4826 11.219L8.88892 9.62529L8.88254 13.3333L7.10475 13.3333L7.11112 9.62525L5.51742 11.219L4.26033 9.96187L8 6.22221L11.7397 9.96187Z" fill="#656E78"/>
</svg>
