<svg width="100%" height="100%" viewBox="0 0 26 25" fill="none" xmlns="http://www.w3.org/2000/svg">
<path d="M3.16667 24.6604C2.29583 24.6604 1.55061 24.3506 0.931 23.731C0.311389 23.1114 0.00105556 22.3657 0 21.4938V18.3271C0 17.8785 0.152 17.5027 0.456 17.1998C0.76 16.8968 1.13578 16.7448 1.58333 16.7438C2.03089 16.7427 2.40719 16.8947 2.71225 17.1998C3.01731 17.5048 3.16878 17.8806 3.16667 18.3271V21.4938H22.1667V18.3271C22.1667 17.8785 22.3187 17.5027 22.6227 17.1998C22.9267 16.8968 23.3024 16.7448 23.75 16.7438C24.1976 16.7427 24.5739 16.8947 24.8789 17.1998C25.184 17.5048 25.3354 17.8806 25.3333 18.3271V21.4938C25.3333 22.3646 25.0235 23.1104 24.4039 23.731C23.7843 24.3517 23.0386 24.6615 22.1667 24.6604H3.16667ZM11.0833 5.42294L8.11458 8.39169C7.79792 8.70836 7.42214 8.86036 6.98725 8.84769C6.55236 8.83502 6.17606 8.66983 5.85833 8.35211C5.56806 8.03544 5.41606 7.666 5.40233 7.24377C5.38861 6.82155 5.54061 6.45211 5.85833 6.13544L11.5583 0.43544C11.7167 0.277107 11.8882 0.165218 12.0729 0.0997739C12.2576 0.0343295 12.4556 0.00107991 12.6667 2.43593e-05C12.8778 -0.0010312 13.0757 0.0322184 13.2604 0.0997739C13.4451 0.167329 13.6167 0.279218 13.775 0.43544L19.475 6.13544C19.7917 6.45211 19.9437 6.82155 19.931 7.24377C19.9183 7.666 19.7663 8.03544 19.475 8.35211C19.1583 8.66877 18.7826 8.83397 18.3477 8.84769C17.9128 8.86141 17.5365 8.70941 17.2188 8.39169L14.25 5.42294V16.7438C14.25 17.1924 14.098 17.5687 13.794 17.8727C13.49 18.1767 13.1142 18.3282 12.6667 18.3271C12.2191 18.3261 11.8433 18.1741 11.5393 17.8711C11.2353 17.5682 11.0833 17.1924 11.0833 16.7438V5.42294Z" fill="#98A7B5"/>
</svg>
