<svg width="100%" height="100%" viewBox="0 0 95 87" fill="none" xmlns="http://www.w3.org/2000/svg">
<path fill-rule="evenodd" clip-rule="evenodd" d="M36.4991 6.375C41.2804 -2.125 53.5116 -2.125 58.2866 6.375L93.1616 68.375C97.8491 76.7125 91.8304 87 82.2741 87H12.5179C2.95535 87 -3.0634 76.7125 1.6241 68.375L36.4991 6.375ZM53.6429 68.2563C53.6429 69.9139 52.9844 71.5036 51.8123 72.6757C50.6402 73.8478 49.0505 74.5063 47.3929 74.5063C45.7353 74.5063 44.1455 73.8478 42.9734 72.6757C41.8013 71.5036 41.1429 69.9139 41.1429 68.2563C41.1429 66.5986 41.8013 65.0089 42.9734 63.8368C44.1455 62.6647 45.7353 62.0063 47.3929 62.0063C49.0505 62.0063 50.6402 62.6647 51.8123 63.8368C52.9844 65.0089 53.6429 66.5986 53.6429 68.2563ZM47.3929 18.2563C45.7353 18.2563 44.1455 18.9147 42.9734 20.0868C41.8013 21.2589 41.1429 22.8486 41.1429 24.5063V43.2562C41.1429 44.9139 41.8013 46.5036 42.9734 47.6757C44.1455 48.8478 45.7353 49.5062 47.3929 49.5062C49.0505 49.5062 50.6402 48.8478 51.8123 47.6757C52.9844 46.5036 53.6429 44.9139 53.6429 43.2562V24.5063C53.6429 22.8486 52.9844 21.2589 51.8123 20.0868C50.6402 18.9147 49.0505 18.2563 47.3929 18.2563Z" fill="current"/>
</svg>
