<svg width="100%" height="100%" viewBox="0 0 22 18" fill="none" xmlns="http://www.w3.org/2000/svg">
<path d="M12.997 1C13.3578 0.999995 13.7119 1.09759 14.0217 1.28244C14.3316 1.46729 14.5856 1.73251 14.757 2.05L15.243 2.95C15.4144 3.26749 15.6684 3.53271 15.9783 3.71756C16.2881 3.90241 16.6422 4.00001 17.003 4H19C19.5304 4 20.0391 4.21071 20.4142 4.58579C20.7893 4.96086 21 5.46957 21 6V15C21 15.5304 20.7893 16.0391 20.4142 16.4142C20.0391 16.7893 19.5304 17 19 17H3C2.46957 17 1.96086 16.7893 1.58579 16.4142C1.21071 16.0391 1 15.5304 1 15V6C1 5.46957 1.21071 4.96086 1.58579 4.58579C1.96086 4.21071 2.46957 4 3 4H4.997C5.35742 4.00002 5.71115 3.90264 6.02078 3.71817C6.33041 3.53369 6.58444 3.26897 6.756 2.952L7.245 2.048C7.41656 1.73103 7.67059 1.46631 7.98022 1.28183C8.28985 1.09736 8.64358 0.99998 9.004 1H12.997Z" stroke="#FFE083" stroke-width="2" stroke-linecap="round" stroke-linejoin="round"/>
<path d="M11 13C12.6569 13 14 11.6569 14 10C14 8.34315 12.6569 7 11 7C9.34315 7 8 8.34315 8 10C8 11.6569 9.34315 13 11 13Z" stroke="#FFE083" stroke-width="2" stroke-linecap="round" stroke-linejoin="round"/>
</svg>
