<svg width="100%" height="100%" viewBox="0 0 21 21" fill="none" xmlns="http://www.w3.org/2000/svg">
<path d="M15.9076 7.0351L16.3127 6.6291C16.6353 6.30641 17.0728 6.12508 17.5291 6.125C17.9854 6.12492 18.423 6.30609 18.7457 6.62866C19.0683 6.95123 19.2497 7.38877 19.2498 7.84504C19.2498 8.3013 19.0687 8.73891 18.7461 9.0616L18.341 9.4676M15.9076 7.0351C15.9076 7.0351 15.9583 7.8961 16.7187 8.65647C17.4791 9.41685 18.341 9.4676 18.341 9.4676M15.9076 7.0351L12.1801 10.7626C11.9263 11.0146 11.8003 11.1415 11.6918 11.2806C11.5635 11.4451 11.4544 11.6218 11.3646 11.8108C11.2885 11.9701 11.2325 12.139 11.1196 12.4776L10.7582 13.5626L10.641 13.9135M18.341 9.4676L14.6135 13.1951C14.3597 13.4488 14.2337 13.5748 14.0946 13.6833C13.9301 13.8117 13.7533 13.9208 13.5643 14.0106C13.4051 14.0867 13.2362 14.1427 12.8976 14.2556L11.8126 14.617L11.4617 14.7342M10.641 13.9135L10.5246 14.2652C10.4975 14.3469 10.4936 14.4344 10.5134 14.5182C10.5333 14.6019 10.576 14.6784 10.6368 14.7393C10.6976 14.8001 10.7742 14.8428 10.8579 14.8626C10.9416 14.8824 11.0292 14.8786 11.1108 14.8515L11.4617 14.7342M10.641 13.9135L11.4617 14.7342" stroke="#FFE083" stroke-width="2"/>
<path d="M7 11.375H9.1875M7 7.875H12.6875M7 14.875H8.3125M17.3495 2.7755C16.3249 1.75 14.6746 1.75 11.375 1.75H9.625C6.32538 1.75 4.67512 1.75 3.6505 2.7755C2.62587 3.801 2.625 5.45038 2.625 8.75V12.25C2.625 15.5496 2.625 17.1999 3.6505 18.2245C4.676 19.2491 6.32538 19.25 9.625 19.25H11.375C14.6746 19.25 16.3249 19.25 17.3495 18.2245C18.1755 17.3994 18.3356 16.17 18.3671 14" stroke="#FFE083" stroke-width="2" stroke-linecap="round"/>
</svg>
