<svg width="100%" height="100%" viewBox="0 0 127 127" fill="none" xmlns="http://www.w3.org/2000/svg">
<path d="M25.1901 59.2527V62.4351C19.7232 66.4413 16.245 72.1823 21.423 78.4435C29.5593 88.2817 50.0966 90.6185 61.706 90.8858C62.1403 90.8967 62.5353 91.2531 62.8106 90.804V82.5297L84.5296 95.894L62.8106 109.08V100.533C55.396 100.415 47.9711 99.7402 40.7154 98.1162C31.7447 96.1086 17.873 91.1786 12.8489 82.4697C6.78004 71.9477 16.8982 63.0279 25.1901 59.2527Z" fill="current"/>
<path d="M101.798 59.2527C109.433 62.7624 119.092 70.6166 115.046 80.7057C112.539 86.956 104.856 91.5659 99.1802 94.0209C98.0327 94.5174 94.3186 96.1049 93.3079 96.1595C93.0583 96.1722 92.8309 96.1795 92.612 96.0286C89.392 93.8154 85.7308 92.0424 82.528 89.8401C82.3467 89.7165 82.0919 89.6437 82.1312 89.351C84.527 88.7381 86.9757 88.2799 89.351 87.5688C100.658 84.1882 117.488 74.5391 101.798 62.4351V59.2527Z" fill="current"/>
<path d="M54.7327 23.2939C60.2321 23.5867 66.3677 22.7429 71.7953 23.2412C72.9649 23.3485 74.0662 23.7668 74.7536 24.8233L79.3416 34.3105L94.7044 34.3396C96.5119 34.556 97.9142 36.3618 98.0458 38.2422V75.5363C97.844 77.8968 96.1802 79.3116 94.0256 79.4443H33.1351C30.8009 79.4171 29.1593 77.8331 28.9455 75.3545V38.424C29.1165 36.4218 30.2263 34.7688 32.1313 34.356L47.766 34.2523L52.4771 24.5323C53.0397 23.7686 53.8742 23.4812 54.7344 23.2958L54.7327 23.2939ZM78.225 56.8602C78.225 48.2149 71.6345 41.2082 63.5068 41.2082C55.3791 41.2082 48.7886 48.2167 48.7886 56.8602C48.7886 65.5036 55.3791 72.5121 63.5068 72.5121C71.6345 72.5121 78.225 65.5036 78.225 56.8602Z" fill="current"/>
<path d="M63.509 67.9821C69.2842 67.9821 73.9658 63.0034 73.9658 56.8618C73.9658 50.7203 69.2842 45.7416 63.509 45.7416C57.7339 45.7416 53.0522 50.7203 53.0522 56.8618C53.0522 63.0034 57.7339 67.9821 63.509 67.9821Z" fill="current"/>
</svg>
