<svg width="100%" height="100%" viewBox="0 0 22 16" fill="none" xmlns="http://www.w3.org/2000/svg">
<path d="M14.9999 6H16.9999M14.9999 10H16.9999M5.16992 11C5.37606 10.414 5.75902 9.90646 6.26594 9.54742C6.77286 9.18837 7.37873 8.99554 7.99992 8.99554C8.62111 8.99554 9.22699 9.18837 9.7339 9.54742C10.2408 9.90646 10.6238 10.414 10.8299 11" stroke="#FFE083" stroke-width="2" stroke-linecap="round" stroke-linejoin="round"/>
<path d="M8 9C9.10457 9 10 8.10457 10 7C10 5.89543 9.10457 5 8 5C6.89543 5 6 5.89543 6 7C6 8.10457 6.89543 9 8 9Z" stroke="#FFE083" stroke-width="2" stroke-linecap="round" stroke-linejoin="round"/>
<path d="M19 1H3C1.89543 1 1 1.89543 1 3V13C1 14.1046 1.89543 15 3 15H19C20.1046 15 21 14.1046 21 13V3C21 1.89543 20.1046 1 19 1Z" stroke="#FFE083" stroke-width="2" stroke-linecap="round" stroke-linejoin="round"/>
</svg>
