<svg width="100%" height="100%" viewBox="0 0 100 75" fill="none" xmlns="http://www.w3.org/2000/svg">
<path d="M53.4375 74.8125V53.4375H67.6875L49.875 32.0625L32.0625 53.4375H46.3125V74.8125H28.5V74.6344C27.8988 74.6678 27.3311 74.8125 26.7188 74.8125C19.6325 74.8125 12.8365 71.9975 7.82574 66.9868C2.815 61.976 0 55.18 0 48.0938C0.00923662 41.5524 2.4278 35.2437 6.79375 30.3725C11.1597 25.5014 17.167 22.4093 23.6684 21.6867C24.8374 15.5905 28.0925 10.0916 32.8747 6.13416C37.6569 2.17677 43.6677 0.00789558 49.875 0C56.0842 0.00531032 62.0977 2.17301 66.8821 6.13062C71.6666 10.0882 74.9234 15.5886 76.0928 21.6867C82.5901 22.4144 88.592 25.5087 92.9534 30.3793C97.3148 35.2499 99.7302 41.5558 99.7389 48.0938C99.7389 55.18 96.9239 61.976 91.9131 66.9868C86.9024 71.9975 80.1064 74.8125 73.0201 74.8125C72.4301 74.8125 71.8512 74.6678 71.2389 74.6344V74.8125H53.4375Z" fill="#529AFF"/>
</svg>
