<svg width="100%" height="100%" viewBox="0 0 15 15" fill="none" xmlns="http://www.w3.org/2000/svg">
<path d="M7.5 0C3.36364 0 0 3.36364 0 7.5C0 11.6364 3.36364 15 7.5 15C11.6364 15 15 11.6364 15 7.5C15 3.36364 11.6364 0 7.5 0ZM7.5 13.6364C4.11818 13.6364 1.36364 10.8818 1.36364 7.5C1.36364 4.11818 4.11818 1.36364 7.5 1.36364C10.8818 1.36364 13.6364 4.11818 13.6364 7.5C13.6364 10.8818 10.8818 13.6364 7.5 13.6364Z" fill="#23C339"/>
<path d="M10.3136 4.85L6.45455 8.70455L4.68636 6.93636C4.41818 6.66818 3.98636 6.66818 3.72273 6.93636C3.45455 7.20455 3.45455 7.63636 3.72273 7.9L5.97273 10.15C6.1 10.2773 6.27273 10.35 6.45455 10.35C6.63636 10.35 6.80909 10.2773 6.93636 10.15L11.2773 5.80909C11.5455 5.54091 11.5455 5.10909 11.2773 4.84545C11.0091 4.58182 10.5773 4.58182 10.3136 4.85Z" fill="#23C339"/>
</svg>
