<svg width="100%" height="100%" viewBox="0 0 12 13" fill="none" xmlns="http://www.w3.org/2000/svg">
<path d="M7.305 0.475467L9.75807 2.05017C10.6489 2.62216 11.1904 3.62575 11.1904 4.70473V8.29527C11.1904 9.37469 10.6493 10.3783 9.75807 10.9498L7.305 12.5245C6.31719 13.1585 5.06367 13.1585 4.07586 12.5245L1.62279 10.9498C0.731994 10.3778 0.19043 9.37425 0.19043 8.29527V4.70473C0.19043 3.62531 0.731572 2.62173 1.62279 2.05017L4.07586 0.475467C5.06367 -0.158489 6.31719 -0.158489 7.305 0.475467ZM7.67574 10.5412C7.4948 10.3397 7.11351 10.4376 6.82417 10.7596C6.53483 11.0816 6.44668 11.5054 6.62762 11.7068C6.80857 11.9083 7.18985 11.8104 7.47919 11.4885C7.76853 11.1665 7.85669 10.7427 7.67574 10.5412ZM3.57732 7.34109C3.06865 6.77213 2.37778 6.6209 2.0336 7.00309C1.68943 7.38529 1.82229 8.15617 2.33054 8.72556C2.8392 9.29452 3.53008 9.44575 3.87425 9.06356C4.21842 8.68136 4.08556 7.91048 3.57732 7.34109ZM9.13721 7.91698C8.95627 7.71548 8.57498 7.81341 8.28564 8.13537C7.9963 8.45733 7.90814 8.88113 8.08909 9.08262C8.27003 9.28412 8.65132 9.18619 8.94066 8.86423C9.23 8.54227 9.31815 8.11847 9.13721 7.91698ZM10.4861 5.54192C10.3051 5.34085 9.92383 5.43835 9.63449 5.76031C9.34515 6.08227 9.25699 6.50607 9.43794 6.70756C9.61888 6.90906 10.0002 6.81113 10.2895 6.48917C10.5788 6.16721 10.667 5.74341 10.4861 5.54192ZM7.85584 2.17974C7.30036 2.17974 6.8499 2.4965 6.8499 2.88736C6.8499 3.27822 7.30036 3.59498 7.85584 3.59498C8.41133 3.59498 8.86179 3.27822 8.86179 2.88736C8.86179 2.4965 8.41133 2.17974 7.85584 2.17974ZM3.57268 2.17974C3.01719 2.17974 2.56673 2.4965 2.56673 2.88736C2.56673 3.27822 3.01719 3.59498 3.57268 3.59498C4.12816 3.59498 4.57862 3.27822 4.57862 2.88736C4.57862 2.4965 4.12816 2.17974 3.57268 2.17974Z" fill="#FFC60D"/>
</svg>
