<svg width="100%" height="100%" fill="none" viewBox="0 0 18 17" xmlns="http://www.w3.org/2000/svg">
    <path d="m17.39 9.478-3.75-1.622-1.564-3.895c-.107-.266-.528-.266-.635 0L9.878 7.856 6.127 9.478a.357.357 0 0 0-.212.33c0 .144.083.274.212.33l3.751 1.621 1.563 3.895c.054.133.179.22.318.22a.344.344 0 0 0 .317-.22l1.563-3.895 3.752-1.622a.357.357 0 0 0 .212-.33.357.357 0 0 0-.212-.329ZM8.43 4.473l-2.415-.836-.805-2.506c-.094-.291-.559-.291-.652 0l-.806 2.506-2.414.836a.358.358 0 0 0-.235.339c0 .153.094.29.235.339l2.415.836.805 2.507a.345.345 0 0 0 .326.243c.148 0 .279-.098.326-.244l.805-2.507 2.416-.836a.356.356 0 0 0 .234-.338.358.358 0 0 0-.235-.339Zm-1.375 9.278-1.384-.48-.461-1.436c-.095-.291-.56-.291-.653 0l-.461 1.437-1.384.479a.358.358 0 0 0-.234.339c0 .153.094.29.235.339l1.384.479.46 1.436a.345.345 0 0 0 .327.243c.148 0 .279-.098.326-.244l.462-1.436 1.384-.479a.356.356 0 0 0 .234-.338.358.358 0 0 0-.235-.34Z" fill="#40E25B"/>
    <path d="m17.39 9.478-3.75-1.622-1.564-3.895c-.107-.266-.528-.266-.635 0L9.878 7.856 6.127 9.478a.357.357 0 0 0-.212.33c0 .144.083.274.212.33l3.751 1.621 1.563 3.895c.054.133.179.22.318.22a.344.344 0 0 0 .317-.22l1.563-3.895 3.752-1.622a.357.357 0 0 0 .212-.33.357.357 0 0 0-.212-.329ZM8.43 4.473l-2.415-.836-.805-2.506c-.094-.291-.559-.291-.652 0l-.806 2.506-2.414.836a.358.358 0 0 0-.235.339c0 .153.094.29.235.339l2.415.836.805 2.507a.345.345 0 0 0 .326.243c.148 0 .279-.098.326-.244l.805-2.507 2.416-.836a.356.356 0 0 0 .234-.338.358.358 0 0 0-.235-.339Zm-1.375 9.278-1.384-.48-.461-1.436c-.095-.291-.56-.291-.653 0l-.461 1.437-1.384.479a.358.358 0 0 0-.234.339c0 .153.094.29.235.339l1.384.479.46 1.436a.345.345 0 0 0 .327.243c.148 0 .279-.098.326-.244l.462-1.436 1.384-.479a.356.356 0 0 0 .234-.338.358.358 0 0 0-.235-.34Z" fill="url(#a)"/>
    <defs>
        <linearGradient id="a" x1="1.103" y1="2.232" x2="16.759" y2="17.143" gradientUnits="userSpaceOnUse">
            <stop stop-color="#0B9322"/>
            <stop offset=".325" stop-color="#0B9322"/>
            <stop offset=".474" stop-color="#0B9322" stop-opacity="0"/>
        </linearGradient>
    </defs>
</svg>
