<svg width="100%" height="100%" viewBox="0 0 16 17" fill="none" xmlns="http://www.w3.org/2000/svg">
<path d="M13.9492 8.25H12.8242V5.25C12.8242 4.85218 12.6662 4.47064 12.3849 4.18934C12.1036 3.90804 11.722 3.75 11.3242 3.75H8.32422V2.625C8.32422 2.12772 8.12667 1.65081 7.77504 1.29917C7.42341 0.947544 6.9465 0.75 6.44922 0.75C5.95194 0.75 5.47502 0.947544 5.12339 1.29917C4.77176 1.65081 4.57422 2.12772 4.57422 2.625V3.75H1.57422C1.17639 3.75 0.794863 3.90804 0.513559 4.18934C0.232254 4.47064 0.0742188 4.85218 0.0742188 5.25V8.1H1.19922C2.32422 8.1 3.22422 9 3.22422 10.125C3.22422 11.25 2.32422 12.15 1.19922 12.15H0.0742188V15C0.0742188 15.3978 0.232254 15.7794 0.513559 16.0607C0.794863 16.342 1.17639 16.5 1.57422 16.5H4.42422V15.375C4.42422 14.25 5.32422 13.35 6.44922 13.35C7.57422 13.35 8.47422 14.25 8.47422 15.375V16.5H11.3242C11.722 16.5 12.1036 16.342 12.3849 16.0607C12.6662 15.7794 12.8242 15.3978 12.8242 15V12H13.9492C14.4465 12 14.9234 11.8025 15.275 11.4508C15.6267 11.0992 15.8242 10.6223 15.8242 10.125C15.8242 9.62772 15.6267 9.15081 15.275 8.79918C14.9234 8.44754 14.4465 8.25 13.9492 8.25Z" fill="#DA3A3A"/>
</svg>
