<svg width="100%" height="100%" viewBox="0 0 12 15" fill="none" xmlns="http://www.w3.org/2000/svg">
<path d="M7.85953 1.11095C7.07461 2.14982 6.65906 3.39646 6.65906 4.69697C6.65906 5.43572 6.78988 6.15907 7.05922 6.83626C6.88992 6.87473 6.72062 6.91321 6.55902 6.97477C6.44359 7.01325 6.32816 7.05172 6.18195 7.10559C5.88953 6.33606 5.73562 5.52037 5.73562 4.69697C5.73562 4.12751 5.81258 3.53497 5.95879 2.95013L6.13578 2.25755L5.65097 2.78853C4.6198 3.90435 3.94261 5.28181 3.6887 6.79008C3.65022 6.79008 3.61175 6.79008 3.58097 6.77469C3.1962 6.71313 2.99611 6.75161 2.77295 6.77469C3.15771 4.07364 4.82758 1.71119 7.27468 0.418373C7.65175 0.2106 7.85953 0.372201 7.92879 0.449154C8.0673 0.618451 8.03652 0.880092 7.85183 1.12634L7.85953 1.11095Z" fill="#FF0D11" fill-opacity="0.5"/>
<path d="M11.0453 11.0073V11.0765C11.0453 12.7849 9.66014 14.1624 7.95178 14.1624C6.98217 14.1624 6.12799 13.7237 5.57393 13.0312C5.57393 13.0312 5.55084 13.0004 5.54315 12.985C5.4508 12.8696 5.36615 12.7464 5.2969 12.6156C5.25842 12.5463 5.21994 12.4848 5.18916 12.4155C5.01217 12.0462 4.90443 11.6537 4.88135 11.2458V11.1997C4.88135 11.1535 4.88135 11.115 4.88135 11.0688C4.88135 10.938 4.88135 10.7995 4.91213 10.6687C4.92752 10.5687 4.95061 10.4686 4.97369 10.3686C5.02756 10.1069 5.1199 9.85299 5.25072 9.62982C5.29689 9.54518 5.33537 9.46822 5.38924 9.39896C5.42002 9.3451 5.4585 9.29123 5.49697 9.23736C5.52775 9.19119 5.56623 9.16041 5.58932 9.12193C5.88174 8.76025 6.25111 8.46783 6.67436 8.27545C6.78209 8.22158 6.90522 8.18311 7.02065 8.14463C7.20533 8.07537 7.39772 8.03689 7.5901 8.0215C7.71322 7.99842 7.83635 7.99072 7.96717 7.99072H8.02104C9.48315 8.01381 10.6913 9.05268 10.9837 10.4378C11.0299 10.6225 11.053 10.8149 11.0607 11.015L11.0453 11.0073Z" fill="#FF0D0D"/>
<path d="M4.19621 13.2233C4.31164 13.4388 4.44246 13.6311 4.59637 13.8158C4.17312 14.039 3.68832 14.1621 3.18043 14.1621C1.47207 14.1621 0.0869141 12.7847 0.0869141 11.0763C0.0869141 9.61419 1.1104 8.37525 2.48786 8.06744C2.60329 8.03666 2.72641 8.01357 2.85723 7.99818C2.95727 7.99818 3.0727 7.98279 3.18043 7.98279C3.25738 7.98279 3.33434 7.98279 3.4113 7.99818C3.53442 7.99818 3.65754 8.02126 3.78066 8.05205C4.07309 8.10591 4.34242 8.19826 4.60406 8.32908C4.45016 8.52146 4.31934 8.71384 4.19621 8.92931C4.08078 9.14478 3.96535 9.36794 3.8884 9.5988C3.82684 9.75271 3.78837 9.91431 3.74989 10.0759C3.71141 10.2067 3.68832 10.3452 3.67293 10.4761C3.64215 10.6761 3.62677 10.8685 3.62677 11.0763C3.62677 11.1533 3.62677 11.2379 3.62677 11.3149V11.3456C3.62677 11.4534 3.64985 11.5611 3.66524 11.6688C3.66524 11.7689 3.69602 11.8689 3.7191 11.9613C3.7191 11.9997 3.7191 12.0305 3.74219 12.0536C3.75758 12.1306 3.77297 12.1998 3.80375 12.2768C3.82684 12.3614 3.85762 12.4615 3.8884 12.5461C3.92687 12.6615 3.97305 12.777 4.02691 12.8924C4.08078 13.0078 4.13465 13.1233 4.20391 13.2233H4.19621Z" fill="#FF0D0D" fill-opacity="0.7"/>
<path d="M4.9502 10.376C5.01176 10.122 5.1041 9.86807 5.22723 9.63721C5.09641 9.86807 4.99637 10.1143 4.9502 10.376Z" fill="#27282B"/>
<path d="M11.1605 5.32805C11.1297 5.58969 11.0528 5.82828 10.9527 6.05145C10.7065 6.08992 10.4525 6.10531 10.1986 6.06684C8.79805 5.88985 7.80535 4.61238 7.98234 3.21953C8.01312 2.96559 8.08238 2.72703 8.19012 2.49617C8.43637 2.4577 8.69031 2.44231 8.94426 2.48078C10.3448 2.65778 11.3375 3.9275 11.1605 5.32805Z" fill="#FF0D11" fill-opacity="0.5"/>
</svg>
