<svg width="100%" height="100%" fill="none" viewBox="0 0 18 16" xmlns="http://www.w3.org/2000/svg">
    <g clip-path="url(#a)">
        <mask id="b" style="mask-type:luminance" maskUnits="userSpaceOnUse" x="0" y="0" width="17" height="16">
            <path d="M16.177.86H.53v14.727h15.648V.86Z" fill="#fff"/>
        </mask>
        <g mask="url(#b)">
            <path fill-rule="evenodd" clip-rule="evenodd" d="m9.268.877 5.9.98c.665.11 1.108.705.99 1.33l-1.695 9.05c-.117.625-.75 1.042-1.414.932l-.85-.141a1.89 1.89 0 0 0-.072-.57l-1.01-3.55c.661-.404 2.056-1.387 2.286-2.61.105-.564-.294-1.1-.893-1.2a1.134 1.134 0 0 0-1.064.39 1.08 1.08 0 0 0-.858-.71 1.157 1.157 0 0 0-.627.07L9.6 3.582c-.227-.798-.948-1.376-1.801-1.475l.056-.298c.117-.625.75-1.042 1.413-.932Zm-1.73 2.076c.539 0 1.032.339 1.178.852l2.527 8.877c.175.612-.212 1.242-.863 1.406l-5.787 1.46c-.106.026-.212.04-.317.04-.538 0-1.031-.34-1.178-.852L.571 5.859c-.174-.613.212-1.243.863-1.407l5.788-1.46c.105-.026.212-.039.316-.039ZM4.12 9.546a.293.293 0 0 0 .093.327l2.077 1.719c.174.144.447.075.521-.131l.885-2.467a.293.293 0 0 0-.093-.326l-2.077-1.72c-.173-.143-.447-.075-.52.132l-.886 2.466Z" fill="#682788"/>
        </g>
        <path fill-rule="evenodd" clip-rule="evenodd" d="M7.583 3c.539 0 1.032.338 1.178.851l2.527 8.878c.175.612-.212 1.242-.863 1.406l-5.787 1.46c-.106.026-.212.04-.317.04-.539 0-1.032-.34-1.178-.852L.616 5.906c-.174-.613.212-1.243.863-1.407l5.787-1.46C7.372 3.013 7.48 3 7.583 3ZM4.164 9.593a.293.293 0 0 0 .093.326l2.077 1.72c.174.144.447.075.521-.131L7.74 9.04a.293.293 0 0 0-.093-.326L5.57 6.995c-.173-.144-.447-.075-.52.132l-.886 2.466Z" fill="#912EC2"/>
    </g>
    <defs>
        <clipPath id="a">
            <path fill="#fff" transform="translate(.574)" d="M0 0h17v16H0z"/>
        </clipPath>
    </defs>
</svg>
