<svg width="100%" height="100%" viewBox="0 0 23 23" fill="none" xmlns="http://www.w3.org/2000/svg">
<path d="M18.8955 17.559C17.2443 19.2813 14.8166 20.2757 12.1156 20.2757C9.41452 20.2757 6.98685 19.3223 5.3356 17.6102C5.05127 17.3232 4.94192 16.9233 5.0294 16.5338C5.57618 14.2271 7.10714 12.8123 9.11926 12.1563H9.13019C10.005 12.6483 11.022 12.9251 12.1156 12.9251C13.2091 12.9251 14.2479 12.638 15.1228 12.146C17.124 12.7816 18.644 14.1554 19.2017 16.4825C19.2892 16.8721 19.1798 17.2719 18.8955 17.559Z" fill="#98A7B5"/>
<path d="M16.1737 7.07083C16.1737 9.3086 14.3551 11.1298 12.1088 11.1298C9.86243 11.1298 8.04395 9.3086 8.04395 7.07083C8.04395 4.83307 9.86243 3 12.1088 3C14.3551 3 16.1737 4.82116 16.1737 7.07083Z" fill="#98A7B5"/>
</svg>
