<svg width="100%" height="100%" viewBox="0 0 23 23" fill="none" xmlns="http://www.w3.org/2000/svg">
<path d="M15.9997 13.9999H7.99967L5.33301 16.6666V5.99992C5.33301 5.82311 5.40325 5.65354 5.52827 5.52851C5.65329 5.40349 5.82286 5.33325 5.99967 5.33325H15.9997C16.1765 5.33325 16.3461 5.40349 16.4711 5.52851C16.5961 5.65354 16.6663 5.82311 16.6663 5.99992V13.3333C16.6663 13.5101 16.5961 13.6796 16.4711 13.8047C16.3461 13.9297 16.1765 13.9999 15.9997 13.9999ZM19.333 9.99992V19.3333L16.6663 16.6666H9.33301C9.1562 16.6666 8.98663 16.5963 8.8616 16.4713C8.73658 16.3463 8.66634 16.1767 8.66634 15.9999V15.3333H17.9997V9.33325H18.6663C18.8432 9.33325 19.0127 9.40349 19.1377 9.52851C19.2628 9.65354 19.333 9.82311 19.333 9.99992ZM9.45967 6.66659C8.87967 6.66659 8.41301 6.79992 8.05301 7.05992C7.70634 7.33325 7.53301 7.71325 7.53967 8.23992L7.54634 8.25992H8.83301C8.83967 8.05992 8.89967 7.90659 9.01967 7.79992C9.14312 7.69755 9.29934 7.64311 9.45967 7.64659C9.66634 7.64659 9.83967 7.71325 9.95967 7.83325C10.0797 7.95992 10.133 8.13325 10.133 8.33325C10.133 8.54659 10.0863 8.72659 9.97967 8.87992C9.88634 9.03325 9.74634 9.16659 9.57301 9.27325C9.23301 9.49992 8.99967 9.69992 8.87301 9.87992C8.73967 10.0533 8.66634 10.3333 8.66634 10.6666H9.99967C9.99967 10.4599 10.0263 10.2933 10.0863 10.1733C10.1463 10.0533 10.2597 9.93325 10.4263 9.82659C10.7263 9.66659 10.973 9.47325 11.1663 9.20659C11.3597 8.93992 11.4597 8.66659 11.4597 8.33325C11.4597 7.82659 11.2797 7.41992 10.9197 7.11992C10.5663 6.81992 10.0797 6.66659 9.45967 6.66659ZM8.66634 11.3333V12.6666H9.99967V11.3333H8.66634ZM12.6663 12.6666H13.9997V11.3333H12.6663V12.6666ZM12.6663 6.66659V10.6666H13.9997V6.66659H12.6663Z" fill="#7F8CA1"/>
</svg>
