<svg width="100%" height="100%" viewBox="0 0 23 23" fill="none" xmlns="http://www.w3.org/2000/svg">
<path d="M18 14.2273C18 16.8659 15.8584 19 13.2105 19C11.9037 19 10.7268 18.4818 9.86474 17.6364H6.36842C5.60895 17.6364 5 17.0295 5 16.2727V5.36364C5 5.00198 5.14417 4.65513 5.4008 4.3994C5.65743 4.14367 6.00549 4 6.36842 4H7.05263V8.77273L8.76316 7.75L10.4737 8.77273V4H14.5789C14.9419 4 15.2899 4.14367 15.5466 4.3994C15.8032 4.65513 15.9474 5.00198 15.9474 5.36364V10.3136C17.1858 11.1795 18 12.6045 18 14.2273ZM16.6316 14.2273C16.6316 12.3455 15.0989 10.8182 13.2105 10.8182C11.3221 10.8182 9.78947 12.3455 9.78947 14.2273C9.78947 16.1091 11.3221 17.6364 13.2105 17.6364C15.0989 17.6364 16.6316 16.1091 16.6316 14.2273Z" fill="#7F8CA1"/>
<path d="M12.906 15.2367C12.906 15.072 12.9153 14.9332 12.934 14.8203C12.9546 14.7075 12.9877 14.6071 13.0332 14.519C13.0808 14.431 13.1459 14.3441 13.2287 14.2584C13.3135 14.1726 13.42 14.0767 13.5482 13.9706C13.6433 13.8894 13.725 13.8014 13.7933 13.7066C13.8615 13.6118 13.9142 13.5125 13.9515 13.4087C13.9887 13.3026 14.0073 13.1932 14.0073 13.0803C14.0073 12.8975 13.9608 12.7542 13.8677 12.6504C13.7767 12.5466 13.6485 12.4947 13.483 12.4947C13.3445 12.4947 13.2256 12.5376 13.1263 12.6233C13.027 12.7068 12.9763 12.8343 12.9743 13.0058H12.0064L12.0002 12.9855C11.9961 12.6989 12.056 12.4563 12.1801 12.2577C12.3042 12.0568 12.4779 11.9045 12.7013 11.8007C12.9267 11.6969 13.1852 11.645 13.4768 11.645C13.9546 11.645 14.3279 11.7714 14.5967 12.0241C14.8656 12.2769 15 12.6188 15 13.0499C15 13.2462 14.9638 13.429 14.8914 13.5983C14.8211 13.7675 14.7249 13.9255 14.6029 14.0722C14.4809 14.2166 14.3423 14.3554 14.1872 14.4886C14.1066 14.5563 14.0445 14.624 14.0011 14.6917C13.9597 14.7594 13.9318 14.8373 13.9173 14.9253C13.9029 15.011 13.8956 15.1148 13.8956 15.2367H12.906ZM12.9029 16.645V15.731H13.8894V16.645H12.9029Z" fill="#7F8CA1"/>
</svg>
