<svg width="100%" height="100%" viewBox="0 0 23 23" fill="none" xmlns="http://www.w3.org/2000/svg">
<path d="M6.00067 17.5461H12.6873C13.3519 17.5461 13.8504 17.3776 14.1828 17.0408C14.5195 16.7041 14.6879 16.199 14.6879 15.5255V11.4443H10.0818C9.89564 11.4443 9.73834 11.3779 9.60984 11.2449C9.48134 11.1076 9.41708 10.948 9.41708 10.7664C9.41708 10.5847 9.48134 10.4274 9.60984 10.2944C9.73834 10.1571 9.89564 10.0884 10.0818 10.0884H14.6879V6.01396C14.6879 5.34929 14.5195 4.84856 14.1828 4.5118C13.8504 4.1706 13.3519 4 12.6873 4H6.00067C5.34042 4 4.84192 4.1706 4.50515 4.5118C4.16838 4.84856 4 5.34929 4 6.01396V15.5255C4 16.199 4.16838 16.7041 4.50515 17.0408C4.84192 17.3776 5.34042 17.5461 6.00067 17.5461ZM14.1163 10.7664C14.1163 10.9126 14.1695 11.0411 14.2759 11.1519C14.3822 11.2582 14.504 11.3114 14.6414 11.3114H16.5025L17.4397 11.2649L16.9877 11.6703L16.0106 12.5876C15.9043 12.6806 15.8511 12.8025 15.8511 12.9531C15.8511 13.0905 15.8954 13.2079 15.9841 13.3054C16.0727 13.3985 16.1857 13.445 16.323 13.445C16.4516 13.445 16.5689 13.3918 16.6753 13.2855L18.7159 11.1718C18.7867 11.1009 18.8355 11.0345 18.8621 10.9724C18.8887 10.9059 18.9019 10.8373 18.9019 10.7664C18.9019 10.6955 18.8887 10.6268 18.8621 10.5603C18.8355 10.4939 18.7867 10.4274 18.7159 10.3609L16.6753 8.24061C16.5689 8.13869 16.4516 8.08774 16.323 8.08774C16.1857 8.08774 16.0727 8.13427 15.9841 8.22732C15.8954 8.31594 15.8511 8.43115 15.8511 8.57295C15.8511 8.7236 15.9043 8.84768 16.0106 8.94517L16.9877 9.86241L17.4397 10.2679L16.5025 10.2213H14.6414C14.504 10.2213 14.3822 10.2745 14.2759 10.3809C14.1695 10.4872 14.1163 10.6157 14.1163 10.7664Z" fill="#7F8CA1"/>
<path d="M6.00067 17.5461H12.6873C13.3519 17.5461 13.8504 17.3776 14.1828 17.0408C14.5195 16.7041 14.6879 16.199 14.6879 15.5255V11.4443H10.0818C9.89564 11.4443 9.73834 11.3779 9.60984 11.2449C9.48134 11.1076 9.41708 10.948 9.41708 10.7664C9.41708 10.5847 9.48134 10.4274 9.60984 10.2944C9.73834 10.1571 9.89564 10.0884 10.0818 10.0884H14.6879V6.01396C14.6879 5.34929 14.5195 4.84856 14.1828 4.5118C13.8504 4.1706 13.3519 4 12.6873 4H6.00067C5.34042 4 4.84192 4.1706 4.50515 4.5118C4.16838 4.84856 4 5.34929 4 6.01396V15.5255C4 16.199 4.16838 16.7041 4.50515 17.0408C4.84192 17.3776 5.34042 17.5461 6.00067 17.5461ZM14.1163 10.7664C14.1163 10.9126 14.1695 11.0411 14.2759 11.1519C14.3822 11.2582 14.504 11.3114 14.6414 11.3114H16.5025L17.4397 11.2649L16.9877 11.6703L16.0106 12.5876C15.9043 12.6806 15.8511 12.8025 15.8511 12.9531C15.8511 13.0905 15.8954 13.2079 15.9841 13.3054C16.0727 13.3985 16.1857 13.445 16.323 13.445C16.4516 13.445 16.5689 13.3918 16.6753 13.2855L18.7159 11.1718C18.7867 11.1009 18.8355 11.0345 18.8621 10.9724C18.8887 10.9059 18.9019 10.8373 18.9019 10.7664C18.9019 10.6955 18.8887 10.6268 18.8621 10.5603C18.8355 10.4939 18.7867 10.4274 18.7159 10.3609L16.6753 8.24061C16.5689 8.13869 16.4516 8.08774 16.323 8.08774C16.1857 8.08774 16.0727 8.13427 15.9841 8.22732C15.8954 8.31594 15.8511 8.43115 15.8511 8.57295C15.8511 8.7236 15.9043 8.84768 16.0106 8.94517L16.9877 9.86241L17.4397 10.2679L16.5025 10.2213H14.6414C14.504 10.2213 14.3822 10.2745 14.2759 10.3809C14.1695 10.4872 14.1163 10.6157 14.1163 10.7664Z" fill="#7F8CA1"/>
</svg>
