<svg width="100%" height="100%" viewBox="0 0 23 23" fill="none" xmlns="http://www.w3.org/2000/svg">
<path d="M18.2911 5.82705C18.0853 5.01293 17.5754 4.48509 16.7881 4.27038C15.9024 4.02882 14.9988 3.8678 14.1131 3.66203C13.3079 3.47415 12.5027 3.3131 11.6975 3.11628C11.5991 3.09838 11.5097 3.08946 11.3934 3.04472C11.2949 3.01788 11.2323 3 11.1607 3C11.0892 3 11.0176 3.01788 10.9192 3.04472C10.6061 3.16103 10.284 3.19682 9.96192 3.27734C9.46986 3.40259 8.97781 3.50099 8.48575 3.60835C7.7432 3.76939 6.99169 3.92146 6.25808 4.09144C5.88233 4.18091 5.49764 4.22566 5.14872 4.42249C4.50458 4.78929 4.11093 5.32607 4.03042 6.06863C3.98568 6.507 4.01252 6.94538 4.01252 7.38376C4.01252 7.98317 4.03936 8.59153 4.00358 9.19989C3.98568 9.62932 4.03936 10.0498 4.0662 10.4703C4.10199 10.9623 4.21829 11.4455 4.34354 11.9196C4.65667 13.0916 5.18451 14.1741 5.88233 15.1672C6.31176 15.7845 6.82171 16.3302 7.37639 16.8312C8.05632 17.4396 8.80783 17.9495 9.62195 18.3521C10.0514 18.5579 10.4808 18.7816 10.955 18.8442C11.0265 18.8531 11.0981 18.8621 11.1786 18.8621C11.4649 18.8621 11.7512 18.7816 12.0286 18.6742C12.6995 18.3879 13.3437 18.0569 13.9431 17.6454C14.3725 17.3501 14.7841 17.037 15.1509 16.6791C15.956 15.9008 16.6539 15.033 17.1728 14.031C17.5932 13.2347 17.9153 12.4027 18.1032 11.526C18.2195 11.016 18.3179 10.4971 18.3179 9.96927C18.3269 9.87086 18.3537 9.15516 18.3537 9.11938V6.31017C18.3537 6.31017 18.3179 5.94336 18.2911 5.82705ZM15.1867 8.95831L11.2413 12.8948C11.0713 13.0737 10.8387 13.1632 10.615 13.1632C10.3913 13.1632 10.1587 13.0737 9.97981 12.8948L7.84161 10.7655C7.4927 10.4166 7.4927 9.84402 7.84161 9.49511C8.19052 9.1462 8.76309 9.1462 9.112 9.49511L10.615 10.9981L13.9163 7.69689C14.2652 7.34798 14.8377 7.34798 15.1867 7.69689C15.5356 8.0458 15.5356 8.6094 15.1867 8.95831Z" fill="#7F8CA1"/>
<path d="M10.6783 12.1786L10.6605 12.1965C10.6605 12.1965 10.5981 12.1252 10.5625 12.0896L10.6783 12.1786Z" fill="#7F8CA1"/>
</svg>
