<svg width="100%" height="100%" viewBox="0 0 23 23" fill="none" xmlns="http://www.w3.org/2000/svg">
<path d="M14.5205 5.28352C14.5181 5.27685 14.515 5.27019 14.512 5.26352L16.9853 4.10017C17.5258 3.84568 18.1342 4.0929 18.345 4.65155L18.6298 5.40833C18.3959 5.68403 18.3329 6.16088 18.5013 6.60744C18.6698 7.054 19.0182 7.33756 19.3587 7.34302L19.9901 9.02019H15.9274C15.9262 9.01473 15.9244 9.00989 15.922 9.00504L15.6796 8.36156C15.6396 8.25613 15.5245 8.20947 15.4227 8.25734C15.3209 8.30521 15.27 8.43003 15.31 8.53546L15.493 9.02079H6.52484L14.1442 5.43681C14.146 5.44408 14.1485 5.45075 14.1509 5.45741L14.3932 6.10089C14.4332 6.20632 14.5478 6.25298 14.6502 6.20511C14.7525 6.15724 14.8028 6.03243 14.7629 5.927L14.5205 5.28352ZM15.0997 6.82254C15.0597 6.71711 14.9452 6.67045 14.8428 6.71832C14.7404 6.76619 14.6901 6.89101 14.7301 6.99644L14.9725 7.63992C15.0125 7.74534 15.127 7.792 15.2294 7.74413C15.3318 7.69627 15.3821 7.57145 15.3421 7.46602L15.0997 6.82254ZM16.9005 9.85271H19.7501C20.3476 9.85271 20.8317 10.3368 20.8317 10.9343V11.6535C20.5045 11.7971 20.2706 12.1837 20.2706 12.6387C20.2706 13.0937 20.5045 13.4803 20.8317 13.6239V16.3548C20.5045 16.4984 20.2706 16.885 20.2706 17.34C20.2706 17.795 20.5045 18.1816 20.8317 18.3252V18.8705C20.8317 19.468 20.3476 19.9521 19.7501 19.9521H16.9011C16.9029 19.9406 16.9042 19.9279 16.9042 19.9157V19.2916C16.9042 19.1753 16.8102 19.0814 16.6939 19.0814C16.5776 19.0814 16.4836 19.1759 16.4836 19.2916V19.9157C16.4836 19.9279 16.4849 19.94 16.4867 19.9521H5.08156C4.48413 19.9521 4 19.468 4 18.8705V18.37C4.39809 18.287 4.70104 17.8574 4.70104 17.34C4.70104 16.8225 4.39809 16.3929 4 16.3099V13.6688C4.39809 13.5857 4.70104 13.1562 4.70104 12.6387C4.70104 12.1213 4.39809 11.6917 4 11.6087V10.9343C4 10.3368 4.48413 9.85271 5.08156 9.85271H16.4867C16.4849 9.86423 16.4836 9.87695 16.4836 9.88907V10.5132C16.4836 10.6295 16.5782 10.7234 16.6939 10.7234C16.8096 10.7234 16.9042 10.6295 16.9042 10.5132V9.88907C16.9042 9.87695 16.9023 9.86423 16.9005 9.85271ZM16.6933 11.2457C16.577 11.2457 16.483 11.3396 16.483 11.456V12.0801C16.483 12.1964 16.5776 12.2903 16.6933 12.2903C16.809 12.2903 16.9035 12.1964 16.9035 12.0801V11.456C16.9035 11.3396 16.8096 11.2457 16.6933 11.2457ZM16.9042 13.0229C16.9042 12.9065 16.8102 12.8126 16.6939 12.8126C16.5776 12.8126 16.4836 12.9065 16.4836 13.0229V13.6469C16.4836 13.7633 16.5782 13.8572 16.6939 13.8572C16.8096 13.8572 16.9042 13.7627 16.9042 13.6469V13.0229ZM16.6939 14.3795C16.5776 14.3795 16.4836 14.4734 16.4836 14.5897V15.2138C16.4836 15.3302 16.5776 15.4241 16.6939 15.4241C16.8102 15.4241 16.9042 15.3302 16.9042 15.2138V14.5897C16.9042 14.4734 16.8102 14.3795 16.6939 14.3795ZM16.9042 16.1572C16.9042 16.0409 16.8102 15.947 16.6939 15.947C16.5776 15.947 16.4836 16.0415 16.4836 16.1572V16.7813C16.4836 16.8977 16.5782 16.9916 16.6939 16.9916C16.8096 16.9916 16.9042 16.8971 16.9042 16.7813V16.1572ZM16.6933 17.5139C16.577 17.5139 16.483 17.6078 16.483 17.7241V18.3482C16.483 18.4646 16.5776 18.5585 16.6933 18.5585C16.809 18.5585 16.9035 18.4646 16.9035 18.3482V17.7241C16.9035 17.6078 16.8096 17.5139 16.6933 17.5139ZM10.8686 11.7583C10.8087 11.6577 10.6632 11.6577 10.6033 11.7583L9.66772 13.3282C9.64591 13.3646 9.61076 13.3906 9.56956 13.3997L7.78757 13.8045C7.67366 13.8305 7.62821 13.9687 7.70577 14.0571L8.90972 15.432C8.93759 15.4641 8.95092 15.5059 8.94729 15.5477L8.78127 17.3679C8.77036 17.4842 8.88851 17.5702 8.99576 17.5236L10.6754 16.8038C10.7141 16.7868 10.7584 16.7868 10.7971 16.8038L12.4767 17.5236C12.584 17.5696 12.7021 17.4842 12.6912 17.3679L12.5252 15.5477C12.5216 15.5053 12.5349 15.4635 12.5628 15.432L13.7667 14.0571C13.8437 13.9693 13.7988 13.8305 13.6849 13.8045L11.9029 13.3997C11.8617 13.3906 11.826 13.3646 11.8048 13.3282L10.8692 11.7583H10.8686Z" fill="#98A7B5"/>
</svg>
