<svg width="100%" height="100%" viewBox="0 0 23 23" fill="none" xmlns="http://www.w3.org/2000/svg">
<g clip-path="url(#clip0_2742_644)">
<path fill-rule="evenodd" clip-rule="evenodd" d="M11.6543 6.42859C11.2562 6.4214 10.8605 6.49279 10.49 6.63868C10.1195 6.78457 9.78141 7.00209 9.49506 7.27879C9.20872 7.55549 8.97975 7.88595 8.82126 8.25124C8.66277 8.61653 8.57788 9.0095 8.57143 9.40764V13.5714C8.57143 13.824 8.47109 14.0663 8.29248 14.2449C8.11388 14.4235 7.87163 14.5238 7.61905 14.5238H6.42857C6.04969 14.5238 5.68633 14.3733 5.41842 14.1054C5.15051 13.8375 5 13.4741 5 13.0953V11.1905C5 10.8116 5.15051 10.4482 5.41842 10.1803C5.68633 9.91243 6.04969 9.76192 6.42857 9.76192H7.14286V9.39049C7.15155 8.80515 7.27546 8.22726 7.50752 7.68981C7.73958 7.15237 8.07523 6.6659 8.49532 6.2582C8.91541 5.85049 9.4117 5.52953 9.95584 5.31365C10.5 5.09777 11.0813 4.9912 11.6667 5.00002C12.252 4.9912 12.8333 5.09777 13.3775 5.31365C13.9216 5.52953 14.4179 5.85049 14.838 6.2582C15.2581 6.6659 15.5938 7.15237 15.8258 7.68981C16.0579 8.22726 16.1818 8.80515 16.1905 9.39049V9.76192H16.9048C17.2836 9.76192 17.647 9.91243 17.9149 10.1803C18.1828 10.4482 18.3333 10.8116 18.3333 11.1905V13.0953C18.3333 13.4741 18.1828 13.8375 17.9149 14.1054C17.647 14.3733 17.2836 14.5238 16.9048 14.5238H16.1905V15C16.1906 15.6436 15.9538 16.2647 15.5251 16.7448C15.0965 17.2249 14.5061 17.5303 13.8667 17.6029C13.7425 17.8246 13.5614 18.0092 13.3421 18.1376C13.1228 18.266 12.8732 18.3336 12.619 18.3334H11.1905C10.8116 18.3334 10.4482 18.1828 10.1803 17.9149C9.91241 17.647 9.7619 17.2837 9.7619 16.9048C9.7619 16.5259 9.91241 16.1625 10.1803 15.8946C10.4482 15.6267 10.8116 15.4762 11.1905 15.4762H12.619C13.1352 15.4762 13.5876 15.7495 13.8381 16.16C14.1006 16.0997 14.3349 15.9521 14.5027 15.7414C14.6705 15.5307 14.7619 15.2694 14.7619 15V9.40668C14.7554 9.00649 14.6696 8.61157 14.5095 8.24473C14.3494 7.8779 14.1182 7.54644 13.8292 7.26951C13.5402 6.99258 13.1992 6.77568 12.8259 6.63134C12.4526 6.487 12.0544 6.41809 11.6543 6.42859Z" fill="#7F8CA1"/>
</g>
<defs>
<clipPath id="clip0_2742_644">
<rect width="13.3333" height="13.3333" fill="white" transform="translate(5 5)"/>
</clipPath>
</defs>
</svg>
