<svg width="100%" height="100%" viewBox="0 0 23 23" fill="none" xmlns="http://www.w3.org/2000/svg">
<path d="M12.5924 3H9.29168C8.5613 3 7.96436 3.49612 7.96436 4.11036V4.66555C7.96436 5.2798 8.55428 5.77592 9.28465 5.77592H12.5924C13.3227 5.77592 13.9127 5.2798 13.9127 4.66555V4.11036C13.9197 3.49612 13.3227 3 12.5924 3Z" fill="#7F8CA1"/>
<path fill-rule="evenodd" clip-rule="evenodd" d="M15.4324 5.17353C15.4324 6.44039 14.367 7.4762 13.064 7.4762H9.21219C7.90914 7.4762 6.84376 6.44039 6.84376 5.17353C6.84376 4.72733 6.35204 4.44846 5.94228 4.65562C4.78674 5.25321 4 6.44039 4 7.80288V15.3006C4 17.2606 5.64725 18.8621 7.66328 18.8621H14.6128C16.6289 18.8621 18.2762 17.2606 18.2762 15.3006V7.80288C18.2762 6.44039 17.4894 5.25321 16.3339 4.65562C15.9241 4.44846 15.4324 4.72733 15.4324 5.17353ZM7.17248 14.1034C7.17248 13.6654 7.52757 13.3102 7.9656 13.3102H11.9312C12.3692 13.3102 12.7243 13.6654 12.7243 14.1034C12.7243 14.5414 12.3692 14.8965 11.9312 14.8965H7.9656C7.52757 14.8965 7.17248 14.5414 7.17248 14.1034ZM7.9656 10.1378C7.52757 10.1378 7.17248 10.4929 7.17248 10.9309C7.17248 11.369 7.52757 11.724 7.9656 11.724H13.5174C13.9554 11.724 14.3106 11.369 14.3106 10.9309C14.3106 10.4929 13.9554 10.1378 13.5174 10.1378H7.9656Z" fill="#7F8CA1"/>
</svg>
